<svg width="64" height="64" viewBox="0 0 64 64" fill="none" xmlns="http://www.w3.org/2000/svg">
<mask id="mask0_3375_2939" style="mask-type:luminance" maskUnits="userSpaceOnUse" x="7" y="7" width="52" height="52">
<path d="M58.1825 7.27295H7.27344V58.182H58.1825V7.27295Z" fill="white"/>
</mask>
<g mask="url(#mask0_3375_2939)">
<path d="M7.89693 38.5937C7.78391 38.1106 8.35918 37.8066 8.70994 38.1575L27.2978 56.7454C27.6491 57.0967 27.3447 57.6719 26.8616 57.5583C17.4815 55.3576 10.0972 47.9738 7.89693 38.5937ZM7.27431 31.1436C7.27012 31.2149 7.2811 31.2863 7.30655 31.3531C7.33201 31.4197 7.37134 31.4802 7.42194 31.5305L33.9242 58.0344C34.0266 58.1362 34.1675 58.1906 34.3111 58.182C35.5176 58.1061 36.7013 57.9479 37.8559 57.71C38.2453 57.6302 38.3803 57.1522 38.0993 56.8712L8.58471 27.3556C8.30369 27.0751 7.82565 27.21 7.74573 27.5993C7.50581 28.7684 7.34829 29.9527 7.27431 31.1436ZM9.41656 22.3954C9.3755 22.4887 9.36363 22.5919 9.38254 22.692C9.40145 22.7919 9.45023 22.8839 9.52245 22.9554L42.4993 55.9323C42.6465 56.0799 42.8689 56.1233 43.0593 56.0382C43.965 55.6347 44.8465 55.1784 45.699 54.6719C45.7643 54.6327 45.8197 54.579 45.8612 54.515C45.9025 54.451 45.9287 54.3784 45.9377 54.3026C45.9467 54.227 45.9383 54.1503 45.913 54.0783C45.8878 54.0065 45.8465 53.9413 45.7921 53.8879L11.568 19.6622C11.5145 19.6078 11.4493 19.5663 11.3774 19.541C11.3054 19.5157 11.2286 19.5073 11.1529 19.5163C11.0771 19.5253 11.0045 19.5515 10.9404 19.5929C10.8764 19.6344 10.8227 19.69 10.7835 19.7553C10.2769 20.6078 9.82011 21.4897 9.41656 22.3954ZM13.7174 16.4743C13.6262 16.3841 13.573 16.2623 13.5688 16.1342C13.5645 16.006 13.6095 15.8811 13.6945 15.785C18.3613 10.5617 25.148 7.27295 32.7034 7.27295C46.7746 7.27295 58.1823 18.6801 58.1823 32.7519C58.1823 40.3068 54.8936 47.094 49.6703 51.7604C49.5743 51.8453 49.4494 51.8903 49.3211 51.886C49.193 51.8818 49.0712 51.8286 48.981 51.7375L13.7174 16.4743Z" fill="#5E6AD2"/>
</g>
</svg>
