<svg width="64" height="64" viewBox="0 0 64 64" fill="none" xmlns="http://www.w3.org/2000/svg">
<g clip-path="url(#clip0_3375_2976)">
<path d="M3.85088 2.76011L39.264 0.144427C43.6141 -0.228693 44.7315 0.0228267 47.4669 2.01131L58.7712 9.97483C60.6355 11.3444 61.2563 11.7175 61.2563 13.2087V56.8843C61.2563 59.6215 60.2624 61.2407 56.7827 61.4878L15.6589 63.9787C13.0477 64.1022 11.8042 63.7291 10.4365 61.9863L2.112 51.1614C0.61888 49.1691 0 47.6779 0 45.9345V7.11211C0 4.87403 0.99392 3.00779 3.85088 2.76011Z" fill="white"/>
<path fill-rule="evenodd" clip-rule="evenodd" d="M39.264 0.145067L3.85088 2.76075C0.99392 3.00779 0 4.87467 0 7.11211V45.9345C0 47.6772 0.61888 49.1684 2.112 51.1614L10.4365 61.9857C11.8042 63.7284 13.0477 64.1022 15.6589 63.978L56.7834 61.4884C60.2605 61.2407 61.257 59.6216 61.257 56.8849V13.2094C61.257 11.795 60.6982 11.3873 59.0534 10.1803L47.4669 2.01131C44.7322 0.0228267 43.6141 -0.228693 39.264 0.144427V0.145067ZM16.5888 12.4945C13.2307 12.7204 12.4691 12.7716 10.5619 11.2209L5.71328 7.36427C5.22048 6.86507 5.46816 6.24235 6.70976 6.11819L40.7533 3.63051C43.6122 3.38091 45.1008 4.37739 46.2189 5.24779L52.0576 9.47819C52.3072 9.60427 52.928 10.3486 52.1811 10.3486L17.024 12.4651L16.5888 12.4945ZM12.6739 56.5118V19.4347C12.6739 17.8155 13.1712 17.0686 14.6598 16.9431L55.04 14.579C56.4096 14.4555 57.0285 15.3259 57.0285 16.9425V53.7726C57.0285 55.3918 56.7789 56.7614 54.5434 56.8849L15.9021 59.1249C13.6666 59.2484 12.6746 58.5041 12.6746 56.5118H12.6739ZM50.8179 21.4225C51.0656 22.5425 50.8179 23.6625 49.6979 23.7905L47.8355 24.1598V51.5345C46.2182 52.4049 44.7296 52.9022 43.4854 52.9022C41.497 52.9022 41.0003 52.2795 39.511 50.4145L27.3318 31.2529V49.7918L31.1846 50.6641C31.1846 50.6641 31.1846 52.9041 28.0762 52.9041L19.5066 53.4014C19.257 52.9022 19.5066 51.6587 20.375 51.411L22.6131 50.7902V26.2782L19.5072 26.0267C19.2576 24.9067 19.8784 23.2894 21.6192 23.1639L30.8141 22.5451L43.4861 41.9543V24.7831L40.256 24.4119C40.0064 23.0404 41.0003 22.044 42.2419 21.9223L50.8179 21.4225Z" fill="black"/>
</g>
<defs>
<clipPath id="clip0_3375_2976">
<rect width="64" height="64" fill="white"/>
</clipPath>
</defs>
</svg>
