<svg width="74" height="100" viewBox="0 0 74 100" fill="none" xmlns="http://www.w3.org/2000/svg">
<mask id="mask0_23_9" style="mask-type:alpha" maskUnits="userSpaceOnUse" x="1" y="1" width="71" height="98">
<path d="M45.3979 1.43042H7.86679C4.22406 1.43042 1.24365 4.41083 1.24365 8.05356V91.9466C1.24365 95.5894 4.22406 98.5698 7.86679 98.5698H65.2673C68.91 98.5698 71.8904 95.5894 71.8904 91.9466V27.923L45.3979 1.43042Z" fill="white"/>
</mask>
<g mask="url(#mask0_23_9)">
<path d="M45.3979 1.43042H7.86679C4.22406 1.43042 1.24365 4.41083 1.24365 8.05356V91.9466C1.24365 95.5894 4.22406 98.5698 7.86679 98.5698H65.2673C68.91 98.5698 71.8904 95.5894 71.8904 91.9466V27.923L56.4364 16.8844L45.3979 1.43042Z" fill="#0F9D58"/>
</g>
<mask id="mask1_23_9" style="mask-type:alpha" maskUnits="userSpaceOnUse" x="1" y="1" width="71" height="98">
<path d="M45.3979 1.43042H7.86679C4.22406 1.43042 1.24365 4.41083 1.24365 8.05356V91.9466C1.24365 95.5894 4.22406 98.5698 7.86679 98.5698H65.2673C68.91 98.5698 71.8904 95.5894 71.8904 91.9466V27.923L45.3979 1.43042Z" fill="white"/>
</mask>
<g mask="url(#mask1_23_9)">
<path d="M18.9053 48.8962V80.908H54.2287V48.8962H18.9053ZM34.3593 76.4926H23.3208V70.9733H34.3593V76.4926ZM34.3593 67.6617H23.3208V62.1424H34.3593V67.6617ZM34.3593 58.8309H23.3208V53.3116H34.3593V58.8309ZM49.8133 76.4926H38.7747V70.9733H49.8133V76.4926ZM49.8133 67.6617H38.7747V62.1424H49.8133V67.6617ZM49.8133 58.8309H38.7747V53.3116H49.8133V58.8309Z" fill="#F1F1F1"/>
</g>
<mask id="mask2_23_9" style="mask-type:alpha" maskUnits="userSpaceOnUse" x="1" y="1" width="71" height="98">
<path d="M45.3979 1.43042H7.86679C4.22406 1.43042 1.24365 4.41083 1.24365 8.05356V91.9466C1.24365 95.5894 4.22406 98.5698 7.86679 98.5698H65.2673C68.91 98.5698 71.8904 95.5894 71.8904 91.9466V27.923L45.3979 1.43042Z" fill="white"/>
</mask>
<g mask="url(#mask2_23_9)">
<path d="M47.3352 25.9857L71.8905 50.5355V27.923L47.3352 25.9857Z" fill="url(#paint0_linear_23_9)"/>
</g>
<mask id="mask3_23_9" style="mask-type:alpha" maskUnits="userSpaceOnUse" x="1" y="1" width="71" height="98">
<path d="M45.3979 1.43042H7.86679C4.22406 1.43042 1.24365 4.41083 1.24365 8.05356V91.9466C1.24365 95.5894 4.22406 98.5698 7.86679 98.5698H65.2673C68.91 98.5698 71.8904 95.5894 71.8904 91.9466V27.923L45.3979 1.43042Z" fill="white"/>
</mask>
<g mask="url(#mask3_23_9)">
<path d="M45.3979 1.43042V21.2999C45.3979 24.9591 48.3617 27.923 52.021 27.923H71.8905L45.3979 1.43042Z" fill="#87CEAC"/>
</g>
<mask id="mask4_23_9" style="mask-type:alpha" maskUnits="userSpaceOnUse" x="1" y="1" width="71" height="98">
<path d="M45.3979 1.43042H7.86679C4.22406 1.43042 1.24365 4.41083 1.24365 8.05356V91.9466C1.24365 95.5894 4.22406 98.5698 7.86679 98.5698H65.2673C68.91 98.5698 71.8904 95.5894 71.8904 91.9466V27.923L45.3979 1.43042Z" fill="white"/>
</mask>
<g mask="url(#mask4_23_9)">
<path d="M7.86679 1.43042C4.22406 1.43042 1.24365 4.41083 1.24365 8.05356V8.60548C1.24365 4.96276 4.22406 1.98235 7.86679 1.98235H45.3979V1.43042H7.86679Z" fill="white" fill-opacity="0.2"/>
</g>
<mask id="mask5_23_9" style="mask-type:alpha" maskUnits="userSpaceOnUse" x="1" y="1" width="71" height="98">
<path d="M45.3979 1.43042H7.86679C4.22406 1.43042 1.24365 4.41083 1.24365 8.05356V91.9466C1.24365 95.5894 4.22406 98.5698 7.86679 98.5698H65.2673C68.91 98.5698 71.8904 95.5894 71.8904 91.9466V27.923L45.3979 1.43042Z" fill="white"/>
</mask>
<g mask="url(#mask5_23_9)">
<path d="M65.2673 98.0178H7.86679C4.22406 98.0178 1.24365 95.0374 1.24365 91.3947V91.9466C1.24365 95.5894 4.22406 98.5698 7.86679 98.5698H65.2673C68.91 98.5698 71.8904 95.5894 71.8904 91.9466V91.3947C71.8904 95.0374 68.91 98.0178 65.2673 98.0178Z" fill="#263238" fill-opacity="0.2"/>
</g>
<mask id="mask6_23_9" style="mask-type:alpha" maskUnits="userSpaceOnUse" x="1" y="1" width="71" height="98">
<path d="M45.3979 1.43042H7.86679C4.22406 1.43042 1.24365 4.41083 1.24365 8.05356V91.9466C1.24365 95.5894 4.22406 98.5698 7.86679 98.5698H65.2673C68.91 98.5698 71.8904 95.5894 71.8904 91.9466V27.923L45.3979 1.43042Z" fill="white"/>
</mask>
<g mask="url(#mask6_23_9)">
<path d="M52.021 27.9229C48.3617 27.9229 45.3979 24.959 45.3979 21.2998V21.8517C45.3979 25.511 48.3617 28.4748 52.021 28.4748H71.8905V27.9229H52.021Z" fill="#263238" fill-opacity="0.1"/>
</g>
<path d="M45.3979 1.43042H7.86679C4.22406 1.43042 1.24365 4.41083 1.24365 8.05356V91.9466C1.24365 95.5894 4.22406 98.5698 7.86679 98.5698H65.2673C68.91 98.5698 71.8904 95.5894 71.8904 91.9466V27.923L45.3979 1.43042Z" fill="url(#paint1_radial_23_9)"/>
<defs>
<linearGradient id="paint0_linear_23_9" x1="59.6142" y1="28.0936" x2="59.6142" y2="50.5389" gradientUnits="userSpaceOnUse">
<stop stop-color="#263238" stop-opacity="0.2"/>
<stop offset="1" stop-color="#263238" stop-opacity="0.02"/>
</linearGradient>
<radialGradient id="paint1_radial_23_9" cx="0" cy="0" r="1" gradientUnits="userSpaceOnUse" gradientTransform="translate(3.48178 3.36127) scale(113.917 113.917)">
<stop stop-color="white" stop-opacity="0.1"/>
<stop offset="1" stop-color="white" stop-opacity="0"/>
</radialGradient>
</defs>
</svg>
