<svg width="203" height="59" viewBox="0 0 203 59" fill="none" xmlns="http://www.w3.org/2000/svg">
<path d="M93.6007 54.5624H83.3506V20.4852H93.7029V24.5717C94.0207 23.936 94.6223 23.2436 95.5077 22.4944C96.4158 21.7225 97.5623 21.0641 98.9472 20.5193C100.355 19.9517 101.944 19.6679 103.715 19.6679C106.439 19.6679 108.766 20.3377 110.696 21.6771C112.648 23.0166 114.146 24.8101 115.191 27.0576C116.235 29.2824 116.757 31.757 116.757 34.4813C116.757 37.2056 116.201 39.6915 115.089 41.9391C113.976 44.1639 112.41 45.9461 110.389 47.2855C108.391 48.6023 106.03 49.2606 103.306 49.2606C101.354 49.2606 99.685 48.9201 98.3001 48.239C96.938 47.5352 95.8596 46.7634 95.065 45.9234C94.2932 45.0607 93.8051 44.3909 93.6007 43.9142V54.5624ZM106.643 34.4813C106.643 33.21 106.36 32.0748 105.792 31.0759C105.224 30.0543 104.453 29.2597 103.476 28.6922C102.523 28.1019 101.444 27.8068 100.241 27.8068C98.9926 27.8068 97.8688 28.1019 96.8699 28.6922C95.8937 29.2597 95.1218 30.0543 94.5542 31.0759C93.9867 32.0748 93.7029 33.21 93.7029 34.4813C93.7029 35.7527 93.9867 36.8991 94.5542 37.9207C95.1218 38.9197 95.8937 39.7029 96.8699 40.2704C97.8688 40.838 98.9926 41.1218 100.241 41.1218C101.444 41.1218 102.523 40.838 103.476 40.2704C104.453 39.7029 105.224 38.9197 105.792 37.9207C106.36 36.8991 106.643 35.7527 106.643 34.4813Z" fill="#00AA45"/>
<path d="M116.887 48.4433V20.4852H127.239V48.4433H116.887ZM122.199 14.7301C120.565 14.7301 119.18 14.1626 118.045 13.0275C116.91 11.8696 116.342 10.4961 116.342 8.90696C116.342 7.31778 116.91 5.94428 118.045 4.78646C119.203 3.60593 120.588 3.01566 122.199 3.01566C123.266 3.01566 124.243 3.28809 125.128 3.83295C126.013 4.35511 126.729 5.05889 127.273 5.94428C127.818 6.82968 128.091 7.81724 128.091 8.90696C128.091 10.4961 127.512 11.8696 126.354 13.0275C125.196 14.1626 123.811 14.7301 122.199 14.7301Z" fill="#00AA45"/>
<path d="M147.993 20.4852H158.734H159.708L146.529 33.8343L161.07 48.4433H149.083L138.288 37.2056V48.4433H127.935V1.58541H138.288V30.2246L147.993 20.4852Z" fill="#00AA45"/>
<path d="M158.734 20.4839H147.994L138.288 30.2233V1.58411H127.936V48.442H138.288V37.2043L149.083 48.442H158.734V46.0947L146.529 33.833L158.734 21.4708V20.4852V20.4839Z" fill="white"/>
<path fillRule="evenodd" clip-rule="evenodd" d="M169.086 48.4433V48.442H169.086V28.9974H173.154V39.5881C173.154 42.8799 174.062 45.3205 175.878 46.9096C177.694 48.4761 179.998 49.2593 182.791 49.2593C184.357 49.2593 185.776 49.1118 187.047 48.8166C188.319 48.5215 189.363 48.1923 190.18 47.8291C191.02 47.4658 191.52 47.2161 191.679 47.0799L188.137 39.7243C188.046 39.8151 187.785 39.9967 187.354 40.2691C186.923 40.5416 186.4 40.6778 185.787 40.6778C184.879 40.6778 184.255 40.3259 183.915 39.6221C183.574 38.8957 183.404 37.9535 183.404 36.7957V28.9974H189.67V20.4839H183.404V9.00782H173.154V20.4839H169.086H158.734V20.4852H158.733V48.4433H169.086ZM168.2 13.0275C168.635 12.5929 168.988 12.1279 169.259 11.6326C169.372 11.4278 169.47 11.2177 169.554 11.0025C169.81 10.3511 169.938 9.65219 169.938 8.90566C169.938 7.81594 169.665 6.82838 169.12 5.94299C168.575 5.05759 167.86 4.35381 166.975 3.83165C166.09 3.28679 165.113 3.01436 164.046 3.01436C162.434 3.01436 161.05 3.60463 159.892 4.78516C159.466 5.21934 159.12 5.68386 158.854 6.1787C158.749 6.3747 158.656 6.57545 158.576 6.78096C158.318 7.44061 158.188 8.14925 158.188 8.90696C158.188 10.4961 158.756 11.8696 159.891 13.0275C161.026 14.1626 162.411 14.7301 164.046 14.7301C165.658 14.7301 167.042 14.1626 168.2 13.0275Z" fill="white"/>
<path fillRule="evenodd" clip-rule="evenodd" d="M72.116 43.9142V48.4433H82.2981V20.4852H72.0139V24.5717C71.696 23.936 71.1285 23.2436 70.3112 22.4944C69.4939 21.7225 68.4269 21.0641 67.1101 20.5193C65.7934 19.9517 64.261 19.6679 62.5129 19.6679C59.7886 19.6679 57.4048 20.3377 55.3616 21.6771C53.5388 22.8721 52.0773 24.4284 50.9773 26.3461L52.9118 20.4852H41.9125L37.4174 37.3759L31.0834 21.0301H24.2727L17.8365 37.3759L13.3755 20.4852H2.3761L11.6387 48.4433H21.1397L27.644 32.2338L34.2163 48.4433H43.6833L49.0231 32.2664C48.9353 32.9854 48.8914 33.7237 48.8914 34.4813C48.8914 37.2056 49.4589 39.6915 50.5941 41.9391C51.7292 44.1639 53.3184 45.9461 55.3616 47.2855C57.4048 48.6023 59.7886 49.2606 62.5129 49.2606C64.3291 49.2606 65.9182 48.9201 67.2804 48.239C68.6425 47.5352 69.7323 46.752 70.5495 45.8893C71.3895 45.0266 71.9117 44.3682 72.116 43.9142ZM49.0231 32.2664C49.2509 30.4 49.7746 28.6637 50.5941 27.0576C50.7165 26.8152 50.8442 26.578 50.9773 26.3461L49.0231 32.2664ZM59.9248 37.9207C59.3345 36.8991 59.0394 35.7527 59.0394 34.4813C59.0394 33.21 59.3345 32.0748 59.9248 31.0759C60.515 30.0543 61.2983 29.2597 62.2745 28.6922C63.2734 28.1019 64.3745 27.8068 65.5777 27.8068C66.8263 27.8068 67.9274 28.1019 68.8809 28.6922C69.8344 29.2597 70.5836 30.0543 71.1285 31.0759C71.696 32.0748 71.9798 33.21 71.9798 34.4813C71.9798 35.7527 71.696 36.8991 71.1285 37.9207C70.5836 38.9197 69.8344 39.7029 68.8809 40.2704C67.9274 40.838 66.8263 41.1218 65.5777 41.1218C64.3745 41.1218 63.2734 40.838 62.2745 40.2704C61.2983 39.7029 60.515 38.9197 59.9248 37.9207Z" fill="#00AA45"/>
<path d="M50.5941 27.0576C49.7746 28.6637 49.2509 30.4 49.0231 32.2664L50.9773 26.3461C50.8442 26.578 50.7165 26.8152 50.5941 27.0576Z" fill="#00AA45"/>
</svg>
