<svg width="287" height="80" viewBox="0 0 287 80" fill="none" xmlns="http://www.w3.org/2000/svg">
<path d="M138.415 80H122.937V28.5417H138.569V34.7125C139.049 33.7526 139.958 32.707 141.295 31.5757C142.666 30.4101 144.397 29.4159 146.488 28.5931C148.614 27.7361 151.013 27.3076 153.687 27.3076C157.801 27.3076 161.315 28.3189 164.229 30.3415C167.177 32.3641 169.44 35.0724 171.017 38.4663C172.594 41.826 173.382 45.5627 173.382 49.6765C173.382 53.7904 172.543 57.5442 170.863 60.9382C169.183 64.2978 166.817 66.9889 163.766 69.0116C160.75 70.9999 157.184 71.9941 153.07 71.9941C150.122 71.9941 147.602 71.4799 145.511 70.4514C143.454 69.3887 141.826 68.2231 140.626 66.9546C139.46 65.6519 138.723 64.6406 138.415 63.9207V80ZM158.11 49.6765C158.11 47.7567 157.681 46.0426 156.824 44.5342C155.967 42.9916 154.802 41.7917 153.327 40.9346C151.888 40.0433 150.259 39.5976 148.442 39.5976C146.557 39.5976 144.86 40.0433 143.351 40.9346C141.877 41.7917 140.712 42.9916 139.855 44.5342C138.998 46.0426 138.569 47.7567 138.569 49.6765C138.569 51.5963 138.998 53.3276 139.855 54.8703C140.712 56.3787 141.877 57.5614 143.351 58.4184C144.86 59.2755 146.557 59.704 148.442 59.704C150.259 59.704 151.888 59.2755 153.327 58.4184C154.802 57.5614 155.967 56.3787 156.824 54.8703C157.681 53.3276 158.11 51.5963 158.11 49.6765Z" fill="#25D366"/>
<path d="M173.578 70.7599V28.5417H189.211V70.7599H173.578ZM181.6 19.8512C179.132 19.8512 177.041 18.9942 175.327 17.2801C173.613 15.5317 172.756 13.4576 172.756 11.0579C172.756 8.65816 173.613 6.5841 175.327 4.83572C177.075 3.05305 179.166 2.16172 181.6 2.16172C183.212 2.16172 184.686 2.57311 186.023 3.39588C187.36 4.18436 188.44 5.2471 189.262 6.5841C190.085 7.92109 190.497 9.41236 190.497 11.0579C190.497 13.4576 189.622 15.5317 187.874 17.2801C186.126 18.9942 184.035 19.8512 181.6 19.8512Z" fill="#25D366"/>
<path d="M220.55 28.5417H236.769H238.24L218.339 48.6995L240.297 70.7599H222.196L205.895 53.7904V70.7599H190.262V0.00196163H205.895V43.2487L220.55 28.5417Z" fill="#101010"/>
<path d="M236.769 28.5397H220.551L205.896 43.2467V0H190.263V70.758H205.896V53.7884L222.197 70.758H236.769V67.2133L218.34 48.6975L236.769 30.0299V28.5417V28.5397Z" fill="#101010"/>
<path fill-rule="evenodd" clip-rule="evenodd" d="M252.401 70.7599V70.758H252.402V41.3955H258.544V57.388C258.544 62.3589 259.915 66.0442 262.658 68.4439C265.4 70.8094 268.88 71.9921 273.097 71.9921C275.462 71.9921 277.605 71.7693 279.524 71.3236C281.444 70.878 283.021 70.3809 284.255 69.8324C285.524 69.2839 286.278 68.9068 286.518 68.7011L281.17 57.5937C281.033 57.7308 280.639 58.0051 279.987 58.4165C279.336 58.8279 278.547 59.0336 277.622 59.0336C276.25 59.0336 275.308 58.5022 274.793 57.4394C274.279 56.3424 274.022 54.9197 274.022 53.1713V41.3955H283.484V28.5397H274.022V11.2102H258.544V28.5397H252.402H236.769V28.5417H236.768V70.7599H252.401ZM251.064 17.2801C251.72 16.6239 252.253 15.9217 252.663 15.1738C252.833 14.8644 252.981 14.5473 253.109 14.2222C253.495 13.2387 253.688 12.1832 253.688 11.0559C253.688 9.4104 253.276 7.91913 252.453 6.58214C251.631 5.24514 250.551 4.1824 249.214 3.39391C247.877 2.57115 246.403 2.15976 244.791 2.15976C242.357 2.15976 240.266 3.05109 238.518 4.83376C237.875 5.4894 237.353 6.19084 236.951 6.93808C236.792 7.23405 236.652 7.53719 236.53 7.84753C236.141 8.84364 235.946 9.91371 235.946 11.0579C235.946 13.4576 236.803 15.5317 238.517 17.2801C240.231 18.9942 242.322 19.8512 244.79 19.8512C247.224 19.8512 249.316 18.9942 251.064 17.2801Z" fill="#101010"/>
<path fill-rule="evenodd" clip-rule="evenodd" d="M105.972 63.9207V70.7599H121.347V28.5417H105.818V34.7125C105.338 33.7526 104.481 32.707 103.246 31.5757C102.012 30.4101 100.401 29.4159 98.4126 28.5931C96.4242 27.7361 94.1102 27.3076 91.4705 27.3076C87.3567 27.3076 83.757 28.3189 80.6717 30.3415C77.9191 32.146 75.7123 34.4961 74.0511 37.3919L76.9724 28.5417H60.3628L53.575 54.0475L44.0103 29.3645H33.7257L24.0068 54.0475L17.2704 28.5417H0.660767L14.6478 70.7599H28.9948L38.8166 46.2826L48.7412 70.7599H63.0368L71.1002 46.3319C70.9676 47.4176 70.9013 48.5325 70.9013 49.6765C70.9013 53.7904 71.7584 57.5442 73.4725 60.9382C75.1866 64.2978 77.5863 66.9889 80.6717 69.0116C83.757 70.9999 87.3567 71.9941 91.4705 71.9941C94.2131 71.9941 96.6128 71.4799 98.6697 70.4514C100.727 69.3887 102.372 68.2059 103.606 66.9032C104.875 65.6005 105.663 64.6063 105.972 63.9207ZM71.1002 46.3319C71.4443 43.5135 72.2351 40.8917 73.4725 38.4663C73.6574 38.1002 73.8503 37.7421 74.0511 37.3919L71.1002 46.3319ZM87.5624 54.8703C86.671 53.3276 86.2254 51.5963 86.2254 49.6765C86.2254 47.7567 86.671 46.0426 87.5624 44.5342C88.4537 42.9916 89.6364 41.7917 91.1105 40.9346C92.6189 40.0433 94.2816 39.5976 96.0986 39.5976C97.9841 39.5976 99.6468 40.0433 101.087 40.9346C102.526 41.7917 103.658 42.9916 104.481 44.5342C105.338 46.0426 105.766 47.7567 105.766 49.6765C105.766 51.5963 105.338 53.3276 104.481 54.8703C103.658 56.3787 102.526 57.5614 101.087 58.4184C99.6468 59.2755 97.9841 59.704 96.0986 59.704C94.2816 59.704 92.6189 59.2755 91.1105 58.4184C89.6364 57.5614 88.4537 56.3787 87.5624 54.8703Z" fill="#25D366"/>
<path d="M73.4725 38.4663C72.2351 40.8917 71.4443 43.5135 71.1002 46.3319L74.0511 37.3919C73.8503 37.7421 73.6574 38.1002 73.4725 38.4663Z" fill="#25D366"/>
</svg>
