<svg width="797" height="270" viewBox="0 0 797 270" fill="none" xmlns="http://www.w3.org/2000/svg">
<path d="M429.145 257.723V253.101C429.02 253.584 428.599 254.247 427.882 255.089C427.183 255.931 426.207 256.693 424.953 257.373C423.717 258.036 422.248 258.368 420.546 258.368C418.558 258.368 416.721 257.911 415.037 256.997C413.371 256.066 412.028 254.731 411.007 252.993C410.003 251.238 409.502 249.142 409.502 246.705C409.502 244.269 410.003 242.182 411.007 240.444C412.028 238.688 413.371 237.345 415.037 236.413C416.721 235.482 418.558 235.016 420.546 235.016C422.248 235.016 423.717 235.338 424.953 235.983C426.189 236.61 427.166 237.336 427.882 238.16C428.617 238.984 429.029 239.674 429.118 240.229V235.661H432.128V257.723H429.145ZM412.538 246.705C412.538 248.568 412.941 250.172 413.747 251.515C414.554 252.859 415.593 253.889 416.865 254.606C418.154 255.322 419.507 255.68 420.922 255.68C422.481 255.68 423.869 255.313 425.087 254.579C426.306 253.844 427.264 252.805 427.963 251.461C428.679 250.118 429.038 248.532 429.038 246.705C429.038 244.878 428.679 243.292 427.963 241.949C427.264 240.605 426.306 239.566 425.087 238.832C423.869 238.079 422.481 237.703 420.922 237.703C419.507 237.703 418.154 238.07 416.865 238.805C415.593 239.521 414.554 240.551 413.747 241.895C412.941 243.239 412.538 244.842 412.538 246.705ZM455.119 235.016C456.14 235.016 457.099 235.132 457.994 235.365C458.908 235.58 459.705 235.858 460.386 236.198C461.067 236.521 461.577 236.816 461.918 237.085L460.44 239.208C460.064 238.85 459.41 238.473 458.478 238.079C457.547 237.667 456.498 237.461 455.334 237.461C453.901 237.461 452.674 237.757 451.653 238.348C450.649 238.939 450.148 239.799 450.148 240.928C450.148 242.02 450.658 242.889 451.679 243.534C452.701 244.179 454.044 244.708 455.71 245.12C456.982 245.442 458.138 245.845 459.177 246.329C460.234 246.813 461.076 247.475 461.703 248.317C462.33 249.142 462.643 250.243 462.643 251.623C462.643 252.805 462.401 253.826 461.918 254.686C461.434 255.528 460.771 256.218 459.929 256.755C459.105 257.293 458.165 257.696 457.108 257.965C456.051 258.233 454.94 258.368 453.775 258.368C452.575 258.368 451.464 258.233 450.443 257.965C449.422 257.696 448.544 257.373 447.81 256.997C447.093 256.621 446.547 256.272 446.171 255.949L447.702 253.557C448.168 254.041 448.93 254.543 449.987 255.062C451.061 255.564 452.315 255.815 453.749 255.815C455.415 255.815 456.785 255.43 457.86 254.659C458.953 253.889 459.499 252.877 459.499 251.623C459.499 250.709 459.239 249.975 458.72 249.419C458.2 248.864 457.52 248.425 456.678 248.102C455.836 247.762 454.94 247.475 453.99 247.243C453.077 247.01 452.199 246.732 451.357 246.41C450.533 246.069 449.798 245.648 449.153 245.147C448.509 244.645 447.998 244.045 447.622 243.346C447.263 242.63 447.084 241.797 447.084 240.847C447.084 239.665 447.452 238.644 448.186 237.784C448.921 236.906 449.897 236.225 451.115 235.741C452.351 235.258 453.686 235.016 455.119 235.016ZM476.141 258.368C473.937 258.368 471.976 257.857 470.256 256.836C468.554 255.797 467.21 254.399 466.225 252.644C465.258 250.888 464.774 248.927 464.774 246.759C464.774 244.591 465.258 242.621 466.225 240.847C467.21 239.056 468.554 237.64 470.256 236.601C471.976 235.544 473.937 235.016 476.141 235.016C478.344 235.016 480.288 235.544 481.972 236.601C483.674 237.64 485.009 239.056 485.976 240.847C486.944 242.621 487.427 244.591 487.427 246.759C487.427 248.927 486.944 250.888 485.976 252.644C485.009 254.399 483.674 255.797 481.972 256.836C480.288 257.857 478.344 258.368 476.141 258.368ZM476.141 255.6C477.807 255.6 479.258 255.215 480.494 254.444C481.748 253.674 482.716 252.617 483.396 251.273C484.095 249.93 484.444 248.425 484.444 246.759C484.444 245.075 484.095 243.561 483.396 242.217C482.716 240.856 481.748 239.781 480.494 238.993C479.258 238.187 477.807 237.784 476.141 237.784C474.457 237.784 472.988 238.187 471.734 238.993C470.48 239.781 469.504 240.856 468.805 242.217C468.106 243.561 467.757 245.075 467.757 246.759C467.757 248.425 468.106 249.93 468.805 251.273C469.504 252.617 470.48 253.674 471.734 254.444C472.988 255.215 474.457 255.6 476.141 255.6ZM488.353 235.661H493.271V229.211C493.271 226.918 493.629 225.118 494.346 223.81C495.063 222.484 495.967 221.535 497.06 220.962C498.153 220.388 499.272 220.102 500.419 220.102C501.781 220.102 502.837 220.299 503.59 220.693C504.342 221.069 504.781 221.311 504.907 221.419L503.59 223.864C503.482 223.756 503.169 223.559 502.649 223.273C502.148 222.986 501.44 222.843 500.526 222.843C499.846 222.843 499.183 223.013 498.538 223.353C497.893 223.676 497.356 224.321 496.926 225.288C496.496 226.256 496.281 227.707 496.281 229.641V235.661H502.945V238.402H496.281V257.723H493.271V238.402H488.353V235.661ZM503.532 235.661H508.127V226.605H511.164V235.661H517.183V238.429H511.164V251.515C511.164 252.984 511.433 254.032 511.97 254.659C512.508 255.286 513.179 255.6 513.986 255.6C514.756 255.6 515.338 255.465 515.732 255.197C516.126 254.928 516.359 254.749 516.431 254.659L517.855 256.997C517.748 257.087 517.506 257.248 517.13 257.481C516.753 257.696 516.261 257.893 515.652 258.072C515.043 258.269 514.308 258.368 513.448 258.368C511.961 258.368 510.698 257.893 509.659 256.943C508.638 255.976 508.127 254.435 508.127 252.321V238.429H503.532V235.661ZM523.601 257.723H520.484V220.747H523.601V257.723ZM546.83 257.723V253.101C546.705 253.584 546.284 254.247 545.567 255.089C544.868 255.931 543.892 256.693 542.638 257.373C541.402 258.036 539.933 258.368 538.231 258.368C536.242 258.368 534.406 257.911 532.722 256.997C531.056 256.066 529.712 254.731 528.691 252.993C527.688 251.238 527.186 249.142 527.186 246.705C527.186 244.269 527.688 242.182 528.691 240.444C529.712 238.688 531.056 237.345 532.722 236.413C534.406 235.482 536.242 235.016 538.231 235.016C539.933 235.016 541.402 235.338 542.638 235.983C543.874 236.61 544.85 237.336 545.567 238.16C546.301 238.984 546.713 239.674 546.803 240.229V235.661H549.813V257.723H546.83ZM530.223 246.705C530.223 248.568 530.626 250.172 531.432 251.515C532.238 252.859 533.277 253.889 534.549 254.606C535.839 255.322 537.192 255.68 538.607 255.68C540.166 255.68 541.554 255.313 542.772 254.579C543.99 253.844 544.949 252.805 545.648 251.461C546.364 250.118 546.722 248.532 546.722 246.705C546.722 244.878 546.364 243.292 545.648 241.949C544.949 240.605 543.99 239.566 542.772 238.832C541.554 238.079 540.166 237.703 538.607 237.703C537.192 237.703 535.839 238.07 534.549 238.805C533.277 239.521 532.238 240.551 531.432 241.895C530.626 243.239 530.223 244.842 530.223 246.705ZM565.458 235.016C566.855 235.016 568.217 235.32 569.542 235.929C570.868 236.521 571.961 237.47 572.821 238.778C573.681 240.068 574.11 241.743 574.11 243.803V257.723H570.993V244.528C570.993 242.074 570.42 240.31 569.274 239.235C568.127 238.142 566.658 237.596 564.867 237.596C563.684 237.596 562.538 237.936 561.427 238.617C560.334 239.297 559.429 240.229 558.713 241.411C558.014 242.594 557.665 243.919 557.665 245.388V257.723H554.601V235.661H557.665V239.907C557.79 239.279 558.211 238.59 558.928 237.837C559.662 237.067 560.594 236.404 561.722 235.849C562.869 235.293 564.114 235.016 565.458 235.016ZM588.416 255.68C589.993 255.68 591.256 255.439 592.205 254.955C593.155 254.453 593.737 254.104 593.952 253.907L595.564 256.272C595.421 256.379 595.018 256.612 594.355 256.97C593.692 257.311 592.832 257.624 591.775 257.911C590.736 258.215 589.554 258.368 588.228 258.368C586.455 258.368 584.744 257.929 583.096 257.051C581.448 256.173 580.086 254.865 579.011 253.128C577.954 251.39 577.426 249.24 577.426 246.678C577.426 244.099 577.954 241.949 579.011 240.229C580.086 238.491 581.448 237.192 583.096 236.333C584.744 235.455 586.455 235.016 588.228 235.016C589.554 235.016 590.719 235.177 591.722 235.499C592.725 235.822 593.549 236.18 594.194 236.574C594.839 236.968 595.242 237.255 595.403 237.434L593.818 239.772C593.657 239.629 593.352 239.396 592.904 239.073C592.474 238.733 591.883 238.42 591.131 238.133C590.378 237.846 589.473 237.703 588.416 237.703C587.145 237.703 585.891 238.052 584.654 238.751C583.418 239.45 582.397 240.471 581.591 241.814C580.803 243.14 580.409 244.761 580.409 246.678C580.409 248.595 580.803 250.225 581.591 251.569C582.397 252.913 583.418 253.934 584.654 254.632C585.891 255.331 587.145 255.68 588.416 255.68ZM599.954 247.054C599.972 248.595 600.277 250.037 600.868 251.381C601.477 252.724 602.391 253.808 603.609 254.632C604.827 255.456 606.359 255.868 608.204 255.868C609.709 255.868 610.963 255.627 611.966 255.143C612.987 254.641 613.793 254.068 614.385 253.423C614.994 252.76 615.424 252.169 615.674 251.65L617.582 253.531C616.919 254.552 616.149 255.43 615.271 256.164C614.411 256.881 613.39 257.427 612.208 257.803C611.043 258.179 609.655 258.368 608.043 258.368C605.696 258.368 603.689 257.848 602.023 256.809C600.375 255.752 599.112 254.319 598.234 252.509C597.375 250.7 596.945 248.667 596.945 246.41C596.945 244.26 597.375 242.325 598.234 240.605C599.094 238.885 600.33 237.524 601.943 236.521C603.573 235.517 605.535 235.016 607.828 235.016C609.906 235.016 611.706 235.473 613.229 236.386C614.77 237.3 615.961 238.572 616.803 240.202C617.663 241.814 618.093 243.695 618.093 245.845C618.093 246.006 618.084 246.212 618.066 246.463C618.066 246.714 618.057 246.911 618.039 247.054H599.954ZM615.029 244.502C615.012 243.534 614.77 242.513 614.304 241.438C613.856 240.345 613.113 239.423 612.074 238.67C611.052 237.9 609.646 237.515 607.855 237.515C605.991 237.515 604.505 237.891 603.394 238.644C602.301 239.378 601.504 240.283 601.002 241.358C600.501 242.432 600.196 243.48 600.089 244.502H615.029ZM624.773 257.723H621.763V235.661H624.773V239.638H624.639C624.71 239.172 625.033 238.581 625.606 237.864C626.197 237.13 626.995 236.476 627.998 235.903C629.001 235.311 630.183 235.016 631.545 235.016C632.584 235.016 633.471 235.15 634.205 235.419C634.958 235.67 635.477 235.929 635.764 236.198L634.42 238.805C634.187 238.572 633.748 238.339 633.103 238.106C632.476 237.873 631.715 237.757 630.819 237.757C629.583 237.757 628.508 238.169 627.595 238.993C626.699 239.817 626 240.802 625.499 241.949C625.015 243.077 624.773 244.116 624.773 245.066V257.723ZM651.071 268.901H648.007V235.661H651.151V240.229C651.259 239.638 651.689 238.939 652.441 238.133C653.212 237.309 654.242 236.583 655.531 235.956C656.839 235.329 658.344 235.016 660.046 235.016C662.052 235.016 663.853 235.482 665.447 236.413C667.06 237.345 668.34 238.688 669.29 240.444C670.239 242.182 670.714 244.269 670.714 246.705C670.714 249.142 670.23 251.238 669.263 252.993C668.314 254.731 667.033 256.066 665.42 256.997C663.808 257.911 661.999 258.368 659.992 258.368C658.255 258.368 656.723 258.036 655.397 257.373C654.089 256.71 653.059 255.958 652.307 255.116C651.572 254.274 651.16 253.602 651.071 253.101V268.901ZM667.651 246.705C667.651 244.842 667.275 243.239 666.522 241.895C665.77 240.551 664.784 239.521 663.566 238.805C662.366 238.07 661.058 237.703 659.643 237.703C658.084 237.703 656.66 238.079 655.37 238.832C654.08 239.566 653.05 240.605 652.28 241.949C651.528 243.292 651.151 244.878 651.151 246.705C651.151 248.532 651.528 250.118 652.28 251.461C653.05 252.805 654.08 253.844 655.37 254.579C656.66 255.313 658.084 255.68 659.643 255.68C661.058 255.68 662.366 255.322 663.566 254.606C664.784 253.889 665.77 252.859 666.522 251.515C667.275 250.172 667.651 248.568 667.651 246.705ZM677.054 257.723H674.044V235.661H677.054V239.638H676.92C676.991 239.172 677.314 238.581 677.887 237.864C678.478 237.13 679.275 236.476 680.279 235.903C681.282 235.311 682.464 235.016 683.826 235.016C684.865 235.016 685.751 235.15 686.486 235.419C687.238 235.67 687.758 235.929 688.045 236.198L686.701 238.805C686.468 238.572 686.029 238.339 685.384 238.106C684.757 237.873 683.996 237.757 683.1 237.757C681.864 237.757 680.789 238.169 679.875 238.993C678.98 239.817 678.281 240.802 677.779 241.949C677.296 243.077 677.054 244.116 677.054 245.066V257.723ZM698.543 258.368C696.339 258.368 694.378 257.857 692.658 256.836C690.956 255.797 689.612 254.399 688.627 252.644C687.66 250.888 687.176 248.927 687.176 246.759C687.176 244.591 687.66 242.621 688.627 240.847C689.612 239.056 690.956 237.64 692.658 236.601C694.378 235.544 696.339 235.016 698.543 235.016C700.746 235.016 702.69 235.544 704.374 236.601C706.076 237.64 707.41 239.056 708.378 240.847C709.345 242.621 709.829 244.591 709.829 246.759C709.829 248.927 709.345 250.888 708.378 252.644C707.41 254.399 706.076 255.797 704.374 256.836C702.69 257.857 700.746 258.368 698.543 258.368ZM698.543 255.6C700.209 255.6 701.66 255.215 702.896 254.444C704.15 253.674 705.117 252.617 705.798 251.273C706.497 249.93 706.846 248.425 706.846 246.759C706.846 245.075 706.497 243.561 705.798 242.217C705.117 240.856 704.15 239.781 702.896 238.993C701.66 238.187 700.209 237.784 698.543 237.784C696.859 237.784 695.39 238.187 694.136 238.993C692.882 239.781 691.905 240.856 691.207 242.217C690.508 243.561 690.159 245.075 690.159 246.759C690.159 248.425 690.508 249.93 691.207 251.273C691.905 252.617 692.882 253.674 694.136 254.444C695.39 255.215 696.859 255.6 698.543 255.6ZM723.084 258.368C721.096 258.368 719.295 257.911 717.683 256.997C716.071 256.066 714.79 254.731 713.84 252.993C712.891 251.238 712.416 249.142 712.416 246.705C712.416 244.269 712.891 242.182 713.84 240.444C714.79 238.688 716.071 237.345 717.683 236.413C719.295 235.482 721.096 235.016 723.084 235.016C724.786 235.016 726.291 235.329 727.599 235.956C728.907 236.583 729.946 237.309 730.716 238.133C731.486 238.939 731.907 239.638 731.979 240.229V220.747H735.096V257.723H732.06V253.101C731.934 253.674 731.477 254.373 730.689 255.197C729.919 256.021 728.88 256.755 727.572 257.4C726.264 258.045 724.768 258.368 723.084 258.368ZM723.461 255.68C725.019 255.68 726.443 255.313 727.733 254.579C729.023 253.844 730.053 252.805 730.824 251.461C731.594 250.118 731.979 248.532 731.979 246.705C731.979 244.878 731.594 243.292 730.824 241.949C730.053 240.605 729.023 239.566 727.733 238.832C726.443 238.079 725.019 237.703 723.461 237.703C722.063 237.703 720.755 238.07 719.537 238.805C718.337 239.521 717.361 240.551 716.608 241.895C715.856 243.239 715.48 244.842 715.48 246.705C715.48 248.568 715.856 250.172 716.608 251.515C717.361 252.859 718.337 253.889 719.537 254.606C720.755 255.322 722.063 255.68 723.461 255.68ZM741.213 247.189C741.213 249.769 741.777 251.82 742.906 253.343C744.052 254.847 745.772 255.6 748.065 255.6C750.376 255.6 752.096 254.847 753.225 253.343C754.353 251.82 754.918 249.769 754.918 247.189V235.661H757.981V247.726C757.981 249.786 757.596 251.623 756.826 253.235C756.055 254.829 754.936 256.083 753.467 256.997C751.998 257.911 750.197 258.368 748.065 258.368C745.951 258.368 744.16 257.911 742.691 256.997C741.222 256.083 740.102 254.829 739.332 253.235C738.562 251.623 738.176 249.786 738.176 247.726V235.661H741.213V247.189ZM772.498 255.68C774.075 255.68 775.338 255.439 776.287 254.955C777.237 254.453 777.819 254.104 778.034 253.907L779.646 256.272C779.503 256.379 779.1 256.612 778.437 256.97C777.774 257.311 776.914 257.624 775.857 257.911C774.818 258.215 773.636 258.368 772.31 258.368C770.537 258.368 768.826 257.929 767.178 257.051C765.529 256.173 764.168 254.865 763.093 253.128C762.036 251.39 761.508 249.24 761.508 246.678C761.508 244.099 762.036 241.949 763.093 240.229C764.168 238.491 765.529 237.192 767.178 236.333C768.826 235.455 770.537 235.016 772.31 235.016C773.636 235.016 774.8 235.177 775.804 235.499C776.807 235.822 777.631 236.18 778.276 236.574C778.921 236.968 779.324 237.255 779.485 237.434L777.9 239.772C777.738 239.629 777.434 239.396 776.986 239.073C776.556 238.733 775.965 238.42 775.212 238.133C774.46 237.846 773.555 237.703 772.498 237.703C771.226 237.703 769.972 238.052 768.736 238.751C767.5 239.45 766.479 240.471 765.673 241.814C764.885 243.14 764.49 244.761 764.49 246.678C764.49 248.595 764.885 250.225 765.673 251.569C766.479 252.913 767.5 253.934 768.736 254.632C769.972 255.331 771.226 255.68 772.498 255.68ZM780.575 235.661H785.17V226.605H788.206V235.661H794.226V238.429H788.206V251.515C788.206 252.984 788.475 254.032 789.012 254.659C789.55 255.286 790.222 255.6 791.028 255.6C791.798 255.6 792.38 255.465 792.774 255.197C793.169 254.928 793.402 254.749 793.473 254.659L794.897 256.997C794.79 257.087 794.548 257.248 794.172 257.481C793.796 257.696 793.303 257.893 792.694 258.072C792.085 258.269 791.35 258.368 790.49 258.368C789.003 258.368 787.74 257.893 786.701 256.943C785.68 255.976 785.17 254.435 785.17 252.321V238.429H780.575V235.661Z" fill="#00191F"/>
<path d="M383.925 222.963H340.787V79.5467H384.355V96.7448C385.693 94.0695 388.225 91.1554 391.951 88.0024C395.773 84.7539 400.598 81.9831 406.426 79.69C412.35 77.3014 419.038 76.107 426.49 76.107C437.956 76.107 447.749 78.9256 455.87 84.5628C464.087 90.1999 470.393 97.748 474.788 107.207C479.183 116.57 481.381 126.985 481.381 138.45C481.381 149.916 479.04 160.378 474.358 169.837C469.677 179.2 463.084 186.7 454.581 192.337C446.173 197.879 436.236 200.65 424.771 200.65C416.554 200.65 409.531 199.217 403.703 196.35C397.97 193.388 393.432 190.14 390.088 186.605C386.839 182.974 384.785 180.156 383.925 178.149V222.963ZM438.816 138.45C438.816 133.1 437.621 128.322 435.233 124.118C432.844 119.819 429.596 116.475 425.487 114.086C421.474 111.602 416.936 110.36 411.872 110.36C406.617 110.36 401.888 111.602 397.684 114.086C393.575 116.475 390.327 119.819 387.938 124.118C385.549 128.322 384.355 133.1 384.355 138.45C384.355 143.801 385.549 148.626 387.938 152.925C390.327 157.129 393.575 160.425 397.684 162.814C401.888 165.203 406.617 166.397 411.872 166.397C416.936 166.397 421.474 165.203 425.487 162.814C429.596 160.425 432.844 157.129 435.233 152.925C437.621 148.626 438.816 143.801 438.816 138.45Z" fill="#25D366"/>
<path d="M481.927 197.21V79.5467H525.496V197.21H481.927ZM504.285 55.326C497.406 55.326 491.577 52.9374 486.8 48.1601C482.023 43.2873 479.634 37.5069 479.634 30.8187C479.634 24.1306 482.023 18.3501 486.8 13.4773C491.673 8.50896 497.501 6.02479 504.285 6.02479C508.775 6.02479 512.884 7.17133 516.61 9.46442C520.336 11.662 523.346 14.6238 525.639 18.3501C527.932 22.0764 529.079 26.2326 529.079 30.8187C529.079 37.5069 526.642 43.2873 521.77 48.1601C516.897 52.9374 511.069 55.326 504.285 55.326Z" fill="#25D366"/>
<path d="M612.839 79.5467H658.043H662.14L606.676 135.727L667.873 197.21H617.425L571.993 149.916V197.21H528.425V0.00546713H571.993V120.535L612.839 79.5467Z" fill="#25D366"/>
<path d="M658.043 79.5412H612.842L571.996 120.53V0H528.428V197.205H571.996V149.91L617.428 197.205H658.043V187.326L606.679 135.722L658.043 83.6944V79.5467V79.5412Z" fill="#00191F"/>
<path fill-rule="evenodd" clip-rule="evenodd" d="M701.608 197.21V197.205H701.611V115.371H718.729V159.942C718.729 173.796 722.55 184.067 730.194 190.756C737.838 197.348 747.535 200.644 759.287 200.644C765.88 200.644 771.852 200.023 777.202 198.781C782.553 197.539 786.948 196.154 790.387 194.625C793.922 193.096 796.024 192.045 796.693 191.472L781.788 160.516C781.406 160.898 780.307 161.662 778.492 162.809C776.677 163.955 774.479 164.528 771.899 164.528C768.078 164.528 765.45 163.048 764.017 160.086C762.584 157.028 761.867 153.063 761.867 148.19V115.371H788.238V79.5412H761.867V31.2432H718.729V79.5412H701.611H658.043V79.5467H658.04V197.21H701.608ZM697.882 48.1601C699.711 46.3313 701.196 44.3744 702.339 42.2898C702.812 41.4277 703.226 40.5437 703.581 39.6378C704.656 36.8966 705.194 33.9551 705.194 30.8133C705.194 26.2271 704.047 22.0709 701.754 18.3446C699.461 14.6184 696.452 11.6565 692.725 9.45895C688.999 7.16587 684.891 6.01932 680.4 6.01932C673.616 6.01932 667.788 8.5035 662.915 13.4718C661.124 15.2991 659.668 17.2541 658.549 19.3367C658.105 20.1615 657.714 21.0064 657.376 21.8713C656.29 24.6475 655.747 27.6298 655.747 30.8187C655.747 37.5069 658.135 43.2873 662.913 48.1601C667.69 52.9374 673.518 55.326 680.397 55.326C687.181 55.326 693.009 52.9374 697.882 48.1601Z" fill="#00191F"/>
<path fill-rule="evenodd" clip-rule="evenodd" d="M293.505 178.149V197.21H336.357V79.5467H293.075V96.7448C291.738 94.0695 289.349 91.1554 285.909 88.0024C282.47 84.7539 277.979 81.9831 272.438 79.69C266.896 77.3014 260.447 76.107 253.09 76.107C241.624 76.107 231.592 78.9256 222.993 84.5628C215.322 89.5918 209.171 96.1418 204.541 104.213L212.683 79.5467H166.392L147.474 150.632L120.817 81.8397H92.1531L65.0661 150.632L46.2915 79.5467H0L38.9823 197.21H78.9679L106.342 128.991L134.002 197.21H173.844L196.317 129.128C195.947 132.154 195.763 135.262 195.763 138.45C195.763 149.916 198.151 160.378 202.929 169.837C207.706 179.2 214.394 186.7 222.993 192.337C231.592 197.879 241.624 200.65 253.09 200.65C260.733 200.65 267.421 199.217 273.154 196.35C278.887 193.388 283.473 190.092 286.913 186.461C290.448 182.831 292.645 180.06 293.505 178.149ZM196.317 129.128C197.276 121.274 199.48 113.966 202.929 107.207C203.444 106.187 203.981 105.188 204.541 104.213L196.317 129.128ZM242.198 152.925C239.713 148.626 238.471 143.801 238.471 138.45C238.471 133.1 239.713 128.322 242.198 124.118C244.682 119.819 247.978 116.475 252.086 114.086C256.29 111.602 260.924 110.36 265.988 110.36C271.243 110.36 275.877 111.602 279.89 114.086C283.903 116.475 287.056 119.819 289.349 124.118C291.738 128.322 292.932 133.1 292.932 138.45C292.932 143.801 291.738 148.626 289.349 152.925C287.056 157.129 283.903 160.425 279.89 162.814C275.877 165.203 271.243 166.397 265.988 166.397C260.924 166.397 256.29 165.203 252.086 162.814C247.978 160.425 244.682 157.129 242.198 152.925Z" fill="#25D366"/>
<path d="M202.929 107.207C199.48 113.966 197.276 121.274 196.317 129.128L204.541 104.213C203.981 105.188 203.444 106.187 202.929 107.207Z" fill="#25D366"/>
</svg>
