<svg width="203" height="59" viewBox="0 0 203 59" fill="none" xmlns="http://www.w3.org/2000/svg">
<path d="M97.09 57.0793H86.367V21.4302H97.1969V25.7051C97.5294 25.0402 98.1587 24.3158 99.085 23.532C100.035 22.7246 101.234 22.0358 102.683 21.4658C104.156 20.8721 105.818 20.5752 107.671 20.5752C110.52 20.5752 112.955 21.2758 114.974 22.6771C117.016 24.0783 118.584 25.9545 119.676 28.3057C120.768 30.6332 121.315 33.2219 121.315 36.0719C121.315 38.9219 120.733 41.5225 119.569 43.8737C118.405 46.2012 116.767 48.0655 114.653 49.4668C112.563 50.8443 110.093 51.533 107.243 51.533C105.201 51.533 103.455 51.1767 102.006 50.4643C100.581 49.728 99.4531 48.9205 98.6218 48.0418C97.8144 47.1393 97.3037 46.4387 97.09 45.9399V57.0793ZM110.734 36.0719C110.734 34.7419 110.437 33.5544 109.844 32.5094C109.25 31.4407 108.442 30.6095 107.421 30.0157C106.424 29.3982 105.296 29.0895 104.037 29.0895C102.731 29.0895 101.555 29.3982 100.51 30.0157C99.4887 30.6095 98.6812 31.4407 98.0875 32.5094C97.4937 33.5544 97.1969 34.7419 97.1969 36.0719C97.1969 37.4019 97.4937 38.6013 98.0875 39.67C98.6812 40.715 99.4887 41.5344 100.51 42.1281C101.555 42.7218 102.731 43.0187 104.037 43.0187C105.296 43.0187 106.424 42.7218 107.421 42.1281C108.442 41.5344 109.25 40.715 109.844 39.67C110.437 38.6013 110.734 37.4019 110.734 36.0719Z" fill="#00AA45"/>
<path d="M121.451 50.678V21.4302H132.28V50.678H121.451ZM127.008 15.4096C125.298 15.4096 123.849 14.8159 122.662 13.6284C121.474 12.4172 120.881 10.9803 120.881 9.31782C120.881 7.65534 121.474 6.21848 122.662 5.00724C123.873 3.77225 125.322 3.15476 127.008 3.15476C128.124 3.15476 129.145 3.43975 130.072 4.00975C130.998 4.55599 131.746 5.29224 132.316 6.21848C132.886 7.14472 133.171 8.17783 133.171 9.31782C133.171 10.9803 132.565 12.4172 131.354 13.6284C130.143 14.8159 128.694 15.4096 127.008 15.4096Z" fill="#00AA45"/>
<path d="M153.991 21.4302H165.228H166.246L152.46 35.395L167.671 50.678H155.131L143.838 38.9219V50.678H133.009V1.65852H143.838V31.6188L153.991 21.4302Z" fill="#00AA45"/>
<path d="M165.228 21.4288H153.992L143.839 31.6175V1.65717H133.009V50.6766H143.839V38.9205L155.132 50.6766H165.228V48.221L152.46 35.3937L165.228 22.4612V21.4302V21.4288Z" fill="black"/>
<path fillRule="evenodd" clipRule="evenodd" d="M176.057 50.678V50.6766H176.058V30.335H180.313V41.4142C180.313 44.858 181.263 47.4111 183.163 49.0735C185.063 50.7123 187.473 51.5316 190.394 51.5316C192.033 51.5316 193.517 51.3773 194.847 51.0685C196.177 50.7598 197.27 50.4154 198.125 50.0354C199.004 49.6554 199.526 49.3942 199.692 49.2517L195.987 41.5567C195.892 41.6517 195.619 41.8417 195.168 42.1267C194.717 42.4117 194.171 42.5542 193.529 42.5542C192.579 42.5542 191.926 42.1861 191.57 41.4499C191.214 40.6899 191.036 39.7043 191.036 38.493V30.335H197.591V21.4288H191.036V9.42333H180.313V21.4288H176.058H165.228V21.4302H165.227V50.678H176.057ZM175.131 13.6284C175.585 13.1738 175.955 12.6874 176.239 12.1692C176.356 11.9549 176.459 11.7352 176.547 11.51C176.815 10.8286 176.948 10.0974 176.948 9.31646C176.948 8.17647 176.663 7.14336 176.093 6.21712C175.523 5.29088 174.775 4.55463 173.849 4.00839C172.923 3.43839 171.901 3.1534 170.785 3.1534C169.099 3.1534 167.65 3.77089 166.439 5.00588C165.994 5.46009 165.632 5.94604 165.354 6.46371C165.243 6.66874 165.146 6.87876 165.062 7.09375C164.792 7.78383 164.657 8.52516 164.657 9.31782C164.657 10.9803 165.251 12.4172 166.438 13.6284C167.626 14.8159 169.075 15.4096 170.785 15.4096C172.471 15.4096 173.92 14.8159 175.131 13.6284Z" fill="black"/>
<path fillRule="evenodd" clipRule="evenodd" d="M74.6142 45.9399V50.678H85.266V21.4302H74.5073V25.7051C74.1748 25.0402 73.5811 24.3158 72.7261 23.532C71.8711 22.7246 70.7548 22.0358 69.3774 21.4658C67.9999 20.8721 66.3968 20.5752 64.568 20.5752C61.7181 20.5752 59.2243 21.2758 57.0869 22.6771C55.18 23.9271 53.6511 25.5553 52.5003 27.5614L54.5241 21.4302H43.0174L38.3149 39.1L31.6887 22.0002H24.5638L17.8307 39.1L13.1639 21.4302H1.65717L11.3471 50.678H21.2863L28.0906 33.7207L34.9662 50.678H44.8698L50.4559 33.7548C50.3641 34.507 50.3182 35.2793 50.3182 36.0719C50.3182 38.9219 50.9119 41.5225 52.0994 43.8737C53.2869 46.2012 54.9494 48.0655 57.0869 49.4668C59.2243 50.8443 61.7181 51.533 64.568 51.533C66.468 51.533 68.1305 51.1767 69.5555 50.4643C70.9805 49.728 72.1205 48.9086 72.9755 48.0062C73.8542 47.1037 74.4004 46.4149 74.6142 45.9399ZM50.4559 33.7548C50.6943 31.8023 51.2422 29.9859 52.0994 28.3057C52.2275 28.0521 52.3611 27.804 52.5003 27.5614L50.4559 33.7548ZM61.8606 39.67C61.2431 38.6013 60.9343 37.4019 60.9343 36.0719C60.9343 34.7419 61.2431 33.5544 61.8606 32.5094C62.4781 31.4407 63.2974 30.6095 64.3187 30.0157C65.3637 29.3982 66.5155 29.0895 67.7743 29.0895C69.0805 29.0895 70.2324 29.3982 71.2298 30.0157C72.2273 30.6095 73.0111 31.4407 73.5811 32.5094C74.1748 33.5544 74.4717 34.7419 74.4717 36.0719C74.4717 37.4019 74.1748 38.6013 73.5811 39.67C73.0111 40.715 72.2273 41.5344 71.2298 42.1281C70.2324 42.7218 69.0805 43.0187 67.7743 43.0187C66.5155 43.0187 65.3637 42.7218 64.3187 42.1281C63.2974 41.5344 62.4781 40.715 61.8606 39.67Z" fill="#00AA45"/>
<path d="M52.0994 28.3057C51.2422 29.9859 50.6943 31.8023 50.4559 33.7548L52.5003 27.5614C52.3611 27.804 52.2275 28.0521 52.0994 28.3057Z" fill="#00AA45"/>
</svg>
