<svg width="700" height="368" viewBox="0 0 700 368" fill="none" xmlns="http://www.w3.org/2000/svg">
<g clip-path="url(#clip0_254_73)">
<rect width="700" height="367.5" rx="18.0833" fill="url(#paint0_linear_254_73)"/>
<rect x="-535.5" y="-175.583" width="1071.58" height="718.667" fill="url(#paint1_radial_254_73)"/>
<path d="M246.145 184.093L236.519 208.083H222.457L208.748 166.705H225.028L231.63 191.703L241.156 167.511H251.236L260.61 191.703L267.263 166.705H283.542L269.884 208.083H255.872L246.145 184.093ZM311.964 208.083V201.38C311.662 202.052 310.889 203.026 309.646 204.303C308.436 205.58 306.824 206.739 304.808 207.781C302.792 208.789 300.44 209.293 297.752 209.293C293.72 209.293 290.192 208.318 287.168 206.37C284.144 204.387 281.792 201.75 280.112 198.457C278.432 195.13 277.592 191.451 277.592 187.419C277.592 183.387 278.432 179.725 280.112 176.432C281.792 173.106 284.144 170.451 287.168 168.469C290.192 166.486 293.72 165.495 297.752 165.495C300.339 165.495 302.607 165.915 304.556 166.755C306.504 167.562 308.084 168.536 309.293 169.678C310.503 170.787 311.343 171.812 311.813 172.753V166.705H327.034V208.083H311.964ZM292.611 187.419C292.611 189.301 293.048 190.998 293.921 192.51C294.795 193.988 295.954 195.147 297.399 195.987C298.877 196.827 300.507 197.247 302.288 197.247C304.136 197.247 305.765 196.827 307.176 195.987C308.588 195.147 309.696 193.988 310.503 192.51C311.343 190.998 311.763 189.301 311.763 187.419C311.763 185.538 311.343 183.858 310.503 182.379C309.696 180.867 308.588 179.691 307.176 178.851C305.765 177.978 304.136 177.541 302.288 177.541C300.507 177.541 298.877 177.978 297.399 178.851C295.954 179.691 294.795 180.867 293.921 182.379C293.048 183.858 292.611 185.538 292.611 187.419ZM343.762 229.05H328.592V166.705H343.913V172.753C344.384 171.812 345.274 170.787 346.585 169.678C347.929 168.536 349.625 167.562 351.675 166.755C353.758 165.915 356.11 165.495 358.731 165.495C362.763 165.495 366.207 166.486 369.063 168.469C371.953 170.451 374.17 173.106 375.716 176.432C377.261 179.725 378.034 183.387 378.034 187.419C378.034 191.451 377.211 195.13 375.565 198.457C373.918 201.75 371.6 204.387 368.609 206.37C365.653 208.318 362.158 209.293 358.126 209.293C355.237 209.293 352.767 208.789 350.717 207.781C348.701 206.739 347.105 205.597 345.929 204.354C344.787 203.077 344.065 202.086 343.762 201.38V229.05ZM363.065 187.419C363.065 185.538 362.645 183.858 361.805 182.379C360.965 180.867 359.823 179.691 358.378 178.851C356.967 177.978 355.371 177.541 353.59 177.541C351.742 177.541 350.079 177.978 348.601 178.851C347.156 179.691 346.013 180.867 345.173 182.379C344.333 183.858 343.913 185.538 343.913 187.419C343.913 189.301 344.333 190.998 345.173 192.51C346.013 193.988 347.156 195.147 348.601 195.987C350.079 196.827 351.742 197.247 353.59 197.247C355.371 197.247 356.967 196.827 358.378 195.987C359.823 195.147 360.965 193.988 361.805 192.51C362.645 190.998 363.065 189.301 363.065 187.419ZM378.226 208.083V166.705H393.548V208.083H378.226ZM386.089 158.187C383.67 158.187 381.62 157.347 379.94 155.667C378.26 153.954 377.42 151.921 377.42 149.569C377.42 147.217 378.26 145.184 379.94 143.47C381.654 141.723 383.703 140.85 386.089 140.85C387.668 140.85 389.113 141.253 390.423 142.059C391.734 142.832 392.792 143.874 393.598 145.184C394.405 146.494 394.808 147.956 394.808 149.569C394.808 151.921 393.951 153.954 392.238 155.667C390.524 157.347 388.474 158.187 386.089 158.187Z" fill="#25D366"/>
<path d="M424.264 166.705H441.601L422.096 186.462L443.617 208.083H425.876L409.9 191.451V208.083H394.578V138.733H409.9V181.119L424.264 166.705ZM440.159 208.083V166.705H455.481V208.083H440.159ZM448.022 158.187C445.602 158.187 443.553 157.347 441.873 155.667C440.193 153.954 439.353 151.921 439.353 149.569C439.353 147.217 440.193 145.184 441.873 143.47C443.586 141.723 445.636 140.85 448.022 140.85C449.601 140.85 451.046 141.253 452.356 142.059C453.666 142.832 454.725 143.874 455.531 145.184C456.338 146.494 456.741 147.956 456.741 149.569C456.741 151.921 455.884 153.954 454.17 155.667C452.457 157.347 450.407 158.187 448.022 158.187ZM454.445 166.705H461.501V149.72H476.671V166.705H485.945V179.305H476.671V190.846C476.671 192.56 476.923 193.954 477.427 195.03C477.931 196.071 478.855 196.592 480.199 196.592C481.106 196.592 481.879 196.39 482.517 195.987C483.156 195.584 483.542 195.315 483.677 195.181L488.918 206.067C488.683 206.269 487.944 206.638 486.701 207.176C485.491 207.714 483.945 208.201 482.064 208.638C480.182 209.074 478.082 209.293 475.764 209.293C471.631 209.293 468.221 208.134 465.533 205.815C462.845 203.463 461.501 199.851 461.501 194.979V179.305H454.445V166.705Z" fill="white"/>
<path d="M364.152 234.5V232.436C364.096 232.652 363.908 232.948 363.588 233.324C363.276 233.7 362.84 234.04 362.28 234.344C361.728 234.64 361.072 234.788 360.312 234.788C359.424 234.788 358.604 234.584 357.852 234.176C357.108 233.76 356.508 233.164 356.052 232.388C355.604 231.604 355.38 230.668 355.38 229.58C355.38 228.492 355.604 227.56 356.052 226.784C356.508 226 357.108 225.4 357.852 224.984C358.604 224.568 359.424 224.36 360.312 224.36C361.072 224.36 361.728 224.504 362.28 224.792C362.832 225.072 363.268 225.396 363.588 225.764C363.916 226.132 364.1 226.44 364.14 226.688V224.648H365.484V234.5H364.152ZM356.736 229.58C356.736 230.412 356.916 231.128 357.276 231.728C357.636 232.328 358.1 232.788 358.668 233.108C359.244 233.428 359.848 233.588 360.48 233.588C361.176 233.588 361.796 233.424 362.34 233.096C362.884 232.768 363.312 232.304 363.624 231.704C363.944 231.104 364.104 230.396 364.104 229.58C364.104 228.764 363.944 228.056 363.624 227.456C363.312 226.856 362.884 226.392 362.34 226.064C361.796 225.728 361.176 225.56 360.48 225.56C359.848 225.56 359.244 225.724 358.668 226.052C358.1 226.372 357.636 226.832 357.276 227.432C356.916 228.032 356.736 228.748 356.736 229.58ZM375.751 224.36C376.207 224.36 376.635 224.412 377.035 224.516C377.443 224.612 377.799 224.736 378.103 224.888C378.407 225.032 378.635 225.164 378.787 225.284L378.127 226.232C377.959 226.072 377.667 225.904 377.251 225.728C376.835 225.544 376.367 225.452 375.847 225.452C375.207 225.452 374.659 225.584 374.203 225.848C373.755 226.112 373.531 226.496 373.531 227C373.531 227.488 373.759 227.876 374.215 228.164C374.671 228.452 375.271 228.688 376.015 228.872C376.583 229.016 377.099 229.196 377.563 229.412C378.035 229.628 378.411 229.924 378.691 230.3C378.971 230.668 379.111 231.16 379.111 231.776C379.111 232.304 379.003 232.76 378.787 233.144C378.571 233.52 378.275 233.828 377.899 234.068C377.531 234.308 377.111 234.488 376.639 234.608C376.167 234.728 375.671 234.788 375.151 234.788C374.615 234.788 374.119 234.728 373.663 234.608C373.207 234.488 372.815 234.344 372.487 234.176C372.167 234.008 371.923 233.852 371.755 233.708L372.439 232.64C372.647 232.856 372.987 233.08 373.459 233.312C373.939 233.536 374.499 233.648 375.139 233.648C375.883 233.648 376.495 233.476 376.975 233.132C377.463 232.788 377.707 232.336 377.707 231.776C377.707 231.368 377.591 231.04 377.359 230.792C377.127 230.544 376.823 230.348 376.447 230.204C376.071 230.052 375.671 229.924 375.247 229.82C374.839 229.716 374.447 229.592 374.071 229.448C373.703 229.296 373.375 229.108 373.087 228.884C372.799 228.66 372.571 228.392 372.403 228.08C372.243 227.76 372.163 227.388 372.163 226.964C372.163 226.436 372.327 225.98 372.655 225.596C372.983 225.204 373.419 224.9 373.963 224.684C374.515 224.468 375.111 224.36 375.751 224.36ZM385.139 234.788C384.155 234.788 383.279 234.56 382.511 234.104C381.751 233.64 381.151 233.016 380.711 232.232C380.279 231.448 380.063 230.572 380.063 229.604C380.063 228.636 380.279 227.756 380.711 226.964C381.151 226.164 381.751 225.532 382.511 225.068C383.279 224.596 384.155 224.36 385.139 224.36C386.123 224.36 386.991 224.596 387.743 225.068C388.503 225.532 389.099 226.164 389.531 226.964C389.963 227.756 390.179 228.636 390.179 229.604C390.179 230.572 389.963 231.448 389.531 232.232C389.099 233.016 388.503 233.64 387.743 234.104C386.991 234.56 386.123 234.788 385.139 234.788ZM385.139 233.552C385.883 233.552 386.531 233.38 387.083 233.036C387.643 232.692 388.075 232.22 388.379 231.62C388.691 231.02 388.847 230.348 388.847 229.604C388.847 228.852 388.691 228.176 388.379 227.576C388.075 226.968 387.643 226.488 387.083 226.136C386.531 225.776 385.883 225.596 385.139 225.596C384.387 225.596 383.731 225.776 383.171 226.136C382.611 226.488 382.175 226.968 381.863 227.576C381.551 228.176 381.395 228.852 381.395 229.604C381.395 230.348 381.551 231.02 381.863 231.62C382.175 232.22 382.611 232.692 383.171 233.036C383.731 233.38 384.387 233.552 385.139 233.552ZM390.592 224.648H392.788V221.768C392.788 220.744 392.948 219.94 393.268 219.356C393.588 218.764 393.992 218.34 394.48 218.084C394.968 217.828 395.468 217.7 395.98 217.7C396.588 217.7 397.06 217.788 397.396 217.964C397.732 218.132 397.928 218.24 397.984 218.288L397.396 219.38C397.348 219.332 397.208 219.244 396.976 219.116C396.752 218.988 396.436 218.924 396.028 218.924C395.724 218.924 395.428 219 395.14 219.152C394.852 219.296 394.612 219.584 394.42 220.016C394.228 220.448 394.132 221.096 394.132 221.96V224.648H397.108V225.872H394.132V234.5H392.788V225.872H390.592V224.648ZM397.371 224.648H399.423V220.604H400.779V224.648H403.467V225.884H400.779V231.728C400.779 232.384 400.899 232.852 401.139 233.132C401.379 233.412 401.679 233.552 402.039 233.552C402.383 233.552 402.643 233.492 402.819 233.372C402.995 233.252 403.099 233.172 403.131 233.132L403.767 234.176C403.719 234.216 403.611 234.288 403.443 234.392C403.275 234.488 403.055 234.576 402.783 234.656C402.511 234.744 402.183 234.788 401.799 234.788C401.135 234.788 400.571 234.576 400.107 234.152C399.651 233.72 399.423 233.032 399.423 232.088V225.884H397.371V224.648ZM406.332 234.5H404.94V217.988H406.332V234.5ZM416.706 234.5V232.436C416.65 232.652 416.462 232.948 416.142 233.324C415.83 233.7 415.394 234.04 414.834 234.344C414.282 234.64 413.626 234.788 412.866 234.788C411.978 234.788 411.158 234.584 410.406 234.176C409.662 233.76 409.062 233.164 408.606 232.388C408.158 231.604 407.934 230.668 407.934 229.58C407.934 228.492 408.158 227.56 408.606 226.784C409.062 226 409.662 225.4 410.406 224.984C411.158 224.568 411.978 224.36 412.866 224.36C413.626 224.36 414.282 224.504 414.834 224.792C415.386 225.072 415.822 225.396 416.142 225.764C416.47 226.132 416.654 226.44 416.694 226.688V224.648H418.038V234.5H416.706ZM409.29 229.58C409.29 230.412 409.47 231.128 409.83 231.728C410.19 232.328 410.654 232.788 411.222 233.108C411.798 233.428 412.402 233.588 413.034 233.588C413.73 233.588 414.35 233.424 414.894 233.096C415.438 232.768 415.866 232.304 416.178 231.704C416.498 231.104 416.658 230.396 416.658 229.58C416.658 228.764 416.498 228.056 416.178 227.456C415.866 226.856 415.438 226.392 414.894 226.064C414.35 225.728 413.73 225.56 413.034 225.56C412.402 225.56 411.798 225.724 411.222 226.052C410.654 226.372 410.19 226.832 409.83 227.432C409.47 228.032 409.29 228.748 409.29 229.58ZM425.024 224.36C425.648 224.36 426.256 224.496 426.848 224.768C427.44 225.032 427.928 225.456 428.312 226.04C428.696 226.616 428.888 227.364 428.888 228.284V234.5H427.496V228.608C427.496 227.512 427.24 226.724 426.728 226.244C426.216 225.756 425.56 225.512 424.76 225.512C424.232 225.512 423.72 225.664 423.224 225.968C422.736 226.272 422.332 226.688 422.012 227.216C421.7 227.744 421.544 228.336 421.544 228.992V234.5H420.176V224.648H421.544V226.544C421.6 226.264 421.788 225.956 422.108 225.62C422.436 225.276 422.852 224.98 423.356 224.732C423.868 224.484 424.424 224.36 425.024 224.36ZM435.277 233.588C435.981 233.588 436.545 233.48 436.969 233.264C437.393 233.04 437.653 232.884 437.749 232.796L438.469 233.852C438.405 233.9 438.225 234.004 437.929 234.164C437.633 234.316 437.249 234.456 436.777 234.584C436.313 234.72 435.785 234.788 435.193 234.788C434.401 234.788 433.637 234.592 432.901 234.2C432.165 233.808 431.557 233.224 431.077 232.448C430.605 231.672 430.369 230.712 430.369 229.568C430.369 228.416 430.605 227.456 431.077 226.688C431.557 225.912 432.165 225.332 432.901 224.948C433.637 224.556 434.401 224.36 435.193 224.36C435.785 224.36 436.305 224.432 436.753 224.576C437.201 224.72 437.569 224.88 437.857 225.056C438.145 225.232 438.325 225.36 438.397 225.44L437.689 226.484C437.617 226.42 437.481 226.316 437.281 226.172C437.089 226.02 436.825 225.88 436.489 225.752C436.153 225.624 435.749 225.56 435.277 225.56C434.709 225.56 434.149 225.716 433.597 226.028C433.045 226.34 432.589 226.796 432.229 227.396C431.877 227.988 431.701 228.712 431.701 229.568C431.701 230.424 431.877 231.152 432.229 231.752C432.589 232.352 433.045 232.808 433.597 233.12C434.149 233.432 434.709 233.588 435.277 233.588ZM440.429 229.736C440.437 230.424 440.573 231.068 440.837 231.668C441.109 232.268 441.517 232.752 442.061 233.12C442.605 233.488 443.289 233.672 444.113 233.672C444.785 233.672 445.345 233.564 445.793 233.348C446.249 233.124 446.609 232.868 446.873 232.58C447.145 232.284 447.337 232.02 447.449 231.788L448.301 232.628C448.005 233.084 447.661 233.476 447.269 233.804C446.885 234.124 446.429 234.368 445.901 234.536C445.381 234.704 444.761 234.788 444.041 234.788C442.993 234.788 442.097 234.556 441.353 234.092C440.617 233.62 440.053 232.98 439.661 232.172C439.277 231.364 439.085 230.456 439.085 229.448C439.085 228.488 439.277 227.624 439.661 226.856C440.045 226.088 440.597 225.48 441.317 225.032C442.045 224.584 442.921 224.36 443.945 224.36C444.873 224.36 445.677 224.564 446.357 224.972C447.045 225.38 447.577 225.948 447.953 226.676C448.337 227.396 448.529 228.236 448.529 229.196C448.529 229.268 448.525 229.36 448.517 229.472C448.517 229.584 448.513 229.672 448.505 229.736H440.429ZM447.161 228.596C447.153 228.164 447.045 227.708 446.837 227.228C446.637 226.74 446.305 226.328 445.841 225.992C445.385 225.648 444.757 225.476 443.957 225.476C443.125 225.476 442.461 225.644 441.965 225.98C441.477 226.308 441.121 226.712 440.897 227.192C440.673 227.672 440.537 228.14 440.489 228.596H447.161ZM451.512 234.5H450.168V224.648H451.512V226.424H451.452C451.484 226.216 451.628 225.952 451.884 225.632C452.148 225.304 452.504 225.012 452.952 224.756C453.4 224.492 453.928 224.36 454.536 224.36C455 224.36 455.396 224.42 455.724 224.54C456.06 224.652 456.292 224.768 456.42 224.888L455.82 226.052C455.716 225.948 455.52 225.844 455.232 225.74C454.952 225.636 454.612 225.584 454.212 225.584C453.66 225.584 453.18 225.768 452.772 226.136C452.372 226.504 452.06 226.944 451.836 227.456C451.62 227.96 451.512 228.424 451.512 228.848V234.5ZM463.256 239.492H461.888V224.648H463.292V226.688C463.34 226.424 463.532 226.112 463.868 225.752C464.212 225.384 464.672 225.06 465.248 224.78C465.832 224.5 466.504 224.36 467.264 224.36C468.16 224.36 468.964 224.568 469.676 224.984C470.396 225.4 470.968 226 471.392 226.784C471.816 227.56 472.028 228.492 472.028 229.58C472.028 230.668 471.812 231.604 471.38 232.388C470.956 233.164 470.384 233.76 469.664 234.176C468.944 234.584 468.136 234.788 467.24 234.788C466.464 234.788 465.78 234.64 465.188 234.344C464.604 234.048 464.144 233.712 463.808 233.336C463.48 232.96 463.296 232.66 463.256 232.436V239.492ZM470.66 229.58C470.66 228.748 470.492 228.032 470.156 227.432C469.82 226.832 469.38 226.372 468.836 226.052C468.3 225.724 467.716 225.56 467.084 225.56C466.388 225.56 465.752 225.728 465.176 226.064C464.6 226.392 464.14 226.856 463.796 227.456C463.46 228.056 463.292 228.764 463.292 229.58C463.292 230.396 463.46 231.104 463.796 231.704C464.14 232.304 464.6 232.768 465.176 233.096C465.752 233.424 466.388 233.588 467.084 233.588C467.716 233.588 468.3 233.428 468.836 233.108C469.38 232.788 469.82 232.328 470.156 231.728C470.492 231.128 470.66 230.412 470.66 229.58ZM474.859 234.5H473.515V224.648H474.859V226.424H474.799C474.831 226.216 474.975 225.952 475.231 225.632C475.495 225.304 475.851 225.012 476.299 224.756C476.747 224.492 477.275 224.36 477.883 224.36C478.347 224.36 478.743 224.42 479.071 224.54C479.407 224.652 479.639 224.768 479.767 224.888L479.167 226.052C479.063 225.948 478.867 225.844 478.579 225.74C478.299 225.636 477.959 225.584 477.559 225.584C477.007 225.584 476.527 225.768 476.119 226.136C475.719 226.504 475.407 226.944 475.183 227.456C474.967 227.96 474.859 228.424 474.859 228.848V234.5ZM484.455 234.788C483.471 234.788 482.595 234.56 481.827 234.104C481.067 233.64 480.467 233.016 480.027 232.232C479.595 231.448 479.379 230.572 479.379 229.604C479.379 228.636 479.595 227.756 480.027 226.964C480.467 226.164 481.067 225.532 481.827 225.068C482.595 224.596 483.471 224.36 484.455 224.36C485.439 224.36 486.307 224.596 487.059 225.068C487.819 225.532 488.415 226.164 488.847 226.964C489.279 227.756 489.495 228.636 489.495 229.604C489.495 230.572 489.279 231.448 488.847 232.232C488.415 233.016 487.819 233.64 487.059 234.104C486.307 234.56 485.439 234.788 484.455 234.788ZM484.455 233.552C485.199 233.552 485.847 233.38 486.399 233.036C486.959 232.692 487.391 232.22 487.695 231.62C488.007 231.02 488.163 230.348 488.163 229.604C488.163 228.852 488.007 228.176 487.695 227.576C487.391 226.968 486.959 226.488 486.399 226.136C485.847 225.776 485.199 225.596 484.455 225.596C483.703 225.596 483.047 225.776 482.487 226.136C481.927 226.488 481.491 226.968 481.179 227.576C480.867 228.176 480.711 228.852 480.711 229.604C480.711 230.348 480.867 231.02 481.179 231.62C481.491 232.22 481.927 232.692 482.487 233.036C483.047 233.38 483.703 233.552 484.455 233.552ZM495.414 234.788C494.526 234.788 493.722 234.584 493.002 234.176C492.282 233.76 491.71 233.164 491.286 232.388C490.862 231.604 490.65 230.668 490.65 229.58C490.65 228.492 490.862 227.56 491.286 226.784C491.71 226 492.282 225.4 493.002 224.984C493.722 224.568 494.526 224.36 495.414 224.36C496.174 224.36 496.846 224.5 497.43 224.78C498.014 225.06 498.478 225.384 498.822 225.752C499.166 226.112 499.354 226.424 499.386 226.688V217.988H500.778V234.5H499.422V232.436C499.366 232.692 499.162 233.004 498.81 233.372C498.466 233.74 498.002 234.068 497.418 234.356C496.834 234.644 496.166 234.788 495.414 234.788ZM495.582 233.588C496.278 233.588 496.914 233.424 497.49 233.096C498.066 232.768 498.526 232.304 498.87 231.704C499.214 231.104 499.386 230.396 499.386 229.58C499.386 228.764 499.214 228.056 498.87 227.456C498.526 226.856 498.066 226.392 497.49 226.064C496.914 225.728 496.278 225.56 495.582 225.56C494.958 225.56 494.374 225.724 493.83 226.052C493.294 226.372 492.858 226.832 492.522 227.432C492.186 228.032 492.018 228.748 492.018 229.58C492.018 230.412 492.186 231.128 492.522 231.728C492.858 232.328 493.294 232.788 493.83 233.108C494.374 233.428 494.958 233.588 495.582 233.588ZM503.51 229.796C503.51 230.948 503.762 231.864 504.266 232.544C504.778 233.216 505.546 233.552 506.57 233.552C507.602 233.552 508.37 233.216 508.874 232.544C509.378 231.864 509.63 230.948 509.63 229.796V224.648H510.998V230.036C510.998 230.956 510.826 231.776 510.482 232.496C510.138 233.208 509.638 233.768 508.982 234.176C508.326 234.584 507.522 234.788 506.57 234.788C505.626 234.788 504.826 234.584 504.17 234.176C503.514 233.768 503.014 233.208 502.67 232.496C502.326 231.776 502.154 230.956 502.154 230.036V224.648H503.51V229.796ZM517.48 233.588C518.184 233.588 518.748 233.48 519.172 233.264C519.596 233.04 519.856 232.884 519.952 232.796L520.672 233.852C520.608 233.9 520.428 234.004 520.132 234.164C519.836 234.316 519.452 234.456 518.98 234.584C518.516 234.72 517.988 234.788 517.396 234.788C516.604 234.788 515.84 234.592 515.104 234.2C514.368 233.808 513.76 233.224 513.28 232.448C512.808 231.672 512.572 230.712 512.572 229.568C512.572 228.416 512.808 227.456 513.28 226.688C513.76 225.912 514.368 225.332 515.104 224.948C515.84 224.556 516.604 224.36 517.396 224.36C517.988 224.36 518.508 224.432 518.956 224.576C519.404 224.72 519.772 224.88 520.06 225.056C520.348 225.232 520.528 225.36 520.6 225.44L519.892 226.484C519.82 226.42 519.684 226.316 519.484 226.172C519.292 226.02 519.028 225.88 518.692 225.752C518.356 225.624 517.952 225.56 517.48 225.56C516.912 225.56 516.352 225.716 515.8 226.028C515.248 226.34 514.792 226.796 514.432 227.396C514.08 227.988 513.904 228.712 513.904 229.568C513.904 230.424 514.08 231.152 514.432 231.752C514.792 232.352 515.248 232.808 515.8 233.12C516.352 233.432 516.912 233.588 517.48 233.588ZM521.087 224.648H523.139V220.604H524.495V224.648H527.183V225.884H524.495V231.728C524.495 232.384 524.615 232.852 524.855 233.132C525.095 233.412 525.395 233.552 525.755 233.552C526.099 233.552 526.359 233.492 526.535 233.372C526.711 233.252 526.815 233.172 526.847 233.132L527.483 234.176C527.435 234.216 527.327 234.288 527.159 234.392C526.991 234.488 526.771 234.576 526.499 234.656C526.227 234.744 525.899 234.788 525.515 234.788C524.851 234.788 524.287 234.576 523.823 234.152C523.367 233.72 523.139 233.032 523.139 232.088V225.884H521.087V224.648Z" fill="white"/>
</g>
<defs>
<linearGradient id="paint0_linear_254_73" x1="700" y1="18.0833" x2="3.34044e-06" y2="367.5" gradientUnits="userSpaceOnUse">
<stop stop-color="#003313"/>
<stop offset="0.499175" stop-color="#1E1E1E"/>
<stop offset="1" stop-color="#091312"/>
</linearGradient>
<radialGradient id="paint1_radial_254_73" cx="0" cy="0" r="1" gradientUnits="userSpaceOnUse" gradientTransform="translate(0.291687 183.75) rotate(90) scale(359.333 535.792)">
<stop stop-color="#2C253F"/>
<stop offset="1" stop-color="#091312" stop-opacity="0"/>
</radialGradient>
<clipPath id="clip0_254_73">
<rect width="700" height="367.5" rx="18.0833" fill="white"/>
</clipPath>
</defs>
</svg>
