<svg width="700" height="320" viewBox="0 0 700 320" fill="none" xmlns="http://www.w3.org/2000/svg">
<rect width="700" height="320" rx="26" fill="url(#paint0_linear_254_65)"/>
<path d="M362.152 218.5V216.436C362.096 216.652 361.908 216.948 361.588 217.324C361.276 217.7 360.84 218.04 360.28 218.344C359.728 218.64 359.072 218.788 358.312 218.788C357.424 218.788 356.604 218.584 355.852 218.176C355.108 217.76 354.508 217.164 354.052 216.388C353.604 215.604 353.38 214.668 353.38 213.58C353.38 212.492 353.604 211.56 354.052 210.784C354.508 210 355.108 209.4 355.852 208.984C356.604 208.568 357.424 208.36 358.312 208.36C359.072 208.36 359.728 208.504 360.28 208.792C360.832 209.072 361.268 209.396 361.588 209.764C361.916 210.132 362.1 210.44 362.14 210.688V208.648H363.484V218.5H362.152ZM354.736 213.58C354.736 214.412 354.916 215.128 355.276 215.728C355.636 216.328 356.1 216.788 356.668 217.108C357.244 217.428 357.848 217.588 358.48 217.588C359.176 217.588 359.796 217.424 360.34 217.096C360.884 216.768 361.312 216.304 361.624 215.704C361.944 215.104 362.104 214.396 362.104 213.58C362.104 212.764 361.944 212.056 361.624 211.456C361.312 210.856 360.884 210.392 360.34 210.064C359.796 209.728 359.176 209.56 358.48 209.56C357.848 209.56 357.244 209.724 356.668 210.052C356.1 210.372 355.636 210.832 355.276 211.432C354.916 212.032 354.736 212.748 354.736 213.58ZM373.751 208.36C374.207 208.36 374.635 208.412 375.035 208.516C375.443 208.612 375.799 208.736 376.103 208.888C376.407 209.032 376.635 209.164 376.787 209.284L376.127 210.232C375.959 210.072 375.667 209.904 375.251 209.728C374.835 209.544 374.367 209.452 373.847 209.452C373.207 209.452 372.659 209.584 372.203 209.848C371.755 210.112 371.531 210.496 371.531 211C371.531 211.488 371.759 211.876 372.215 212.164C372.671 212.452 373.271 212.688 374.015 212.872C374.583 213.016 375.099 213.196 375.563 213.412C376.035 213.628 376.411 213.924 376.691 214.3C376.971 214.668 377.111 215.16 377.111 215.776C377.111 216.304 377.003 216.76 376.787 217.144C376.571 217.52 376.275 217.828 375.899 218.068C375.531 218.308 375.111 218.488 374.639 218.608C374.167 218.728 373.671 218.788 373.151 218.788C372.615 218.788 372.119 218.728 371.663 218.608C371.207 218.488 370.815 218.344 370.487 218.176C370.167 218.008 369.923 217.852 369.755 217.708L370.439 216.64C370.647 216.856 370.987 217.08 371.459 217.312C371.939 217.536 372.499 217.648 373.139 217.648C373.883 217.648 374.495 217.476 374.975 217.132C375.463 216.788 375.707 216.336 375.707 215.776C375.707 215.368 375.591 215.04 375.359 214.792C375.127 214.544 374.823 214.348 374.447 214.204C374.071 214.052 373.671 213.924 373.247 213.82C372.839 213.716 372.447 213.592 372.071 213.448C371.703 213.296 371.375 213.108 371.087 212.884C370.799 212.66 370.571 212.392 370.403 212.08C370.243 211.76 370.163 211.388 370.163 210.964C370.163 210.436 370.327 209.98 370.655 209.596C370.983 209.204 371.419 208.9 371.963 208.684C372.515 208.468 373.111 208.36 373.751 208.36ZM383.139 218.788C382.155 218.788 381.279 218.56 380.511 218.104C379.751 217.64 379.151 217.016 378.711 216.232C378.279 215.448 378.063 214.572 378.063 213.604C378.063 212.636 378.279 211.756 378.711 210.964C379.151 210.164 379.751 209.532 380.511 209.068C381.279 208.596 382.155 208.36 383.139 208.36C384.123 208.36 384.991 208.596 385.743 209.068C386.503 209.532 387.099 210.164 387.531 210.964C387.963 211.756 388.179 212.636 388.179 213.604C388.179 214.572 387.963 215.448 387.531 216.232C387.099 217.016 386.503 217.64 385.743 218.104C384.991 218.56 384.123 218.788 383.139 218.788ZM383.139 217.552C383.883 217.552 384.531 217.38 385.083 217.036C385.643 216.692 386.075 216.22 386.379 215.62C386.691 215.02 386.847 214.348 386.847 213.604C386.847 212.852 386.691 212.176 386.379 211.576C386.075 210.968 385.643 210.488 385.083 210.136C384.531 209.776 383.883 209.596 383.139 209.596C382.387 209.596 381.731 209.776 381.171 210.136C380.611 210.488 380.175 210.968 379.863 211.576C379.551 212.176 379.395 212.852 379.395 213.604C379.395 214.348 379.551 215.02 379.863 215.62C380.175 216.22 380.611 216.692 381.171 217.036C381.731 217.38 382.387 217.552 383.139 217.552ZM388.592 208.648H390.788V205.768C390.788 204.744 390.948 203.94 391.268 203.356C391.588 202.764 391.992 202.34 392.48 202.084C392.968 201.828 393.468 201.7 393.98 201.7C394.588 201.7 395.06 201.788 395.396 201.964C395.732 202.132 395.928 202.24 395.984 202.288L395.396 203.38C395.348 203.332 395.208 203.244 394.976 203.116C394.752 202.988 394.436 202.924 394.028 202.924C393.724 202.924 393.428 203 393.14 203.152C392.852 203.296 392.612 203.584 392.42 204.016C392.228 204.448 392.132 205.096 392.132 205.96V208.648H395.108V209.872H392.132V218.5H390.788V209.872H388.592V208.648ZM395.371 208.648H397.423V204.604H398.779V208.648H401.467V209.884H398.779V215.728C398.779 216.384 398.899 216.852 399.139 217.132C399.379 217.412 399.679 217.552 400.039 217.552C400.383 217.552 400.643 217.492 400.819 217.372C400.995 217.252 401.099 217.172 401.131 217.132L401.767 218.176C401.719 218.216 401.611 218.288 401.443 218.392C401.275 218.488 401.055 218.576 400.783 218.656C400.511 218.744 400.183 218.788 399.799 218.788C399.135 218.788 398.571 218.576 398.107 218.152C397.651 217.72 397.423 217.032 397.423 216.088V209.884H395.371V208.648ZM404.332 218.5H402.94V201.988H404.332V218.5ZM414.706 218.5V216.436C414.65 216.652 414.462 216.948 414.142 217.324C413.83 217.7 413.394 218.04 412.834 218.344C412.282 218.64 411.626 218.788 410.866 218.788C409.978 218.788 409.158 218.584 408.406 218.176C407.662 217.76 407.062 217.164 406.606 216.388C406.158 215.604 405.934 214.668 405.934 213.58C405.934 212.492 406.158 211.56 406.606 210.784C407.062 210 407.662 209.4 408.406 208.984C409.158 208.568 409.978 208.36 410.866 208.36C411.626 208.36 412.282 208.504 412.834 208.792C413.386 209.072 413.822 209.396 414.142 209.764C414.47 210.132 414.654 210.44 414.694 210.688V208.648H416.038V218.5H414.706ZM407.29 213.58C407.29 214.412 407.47 215.128 407.83 215.728C408.19 216.328 408.654 216.788 409.222 217.108C409.798 217.428 410.402 217.588 411.034 217.588C411.73 217.588 412.35 217.424 412.894 217.096C413.438 216.768 413.866 216.304 414.178 215.704C414.498 215.104 414.658 214.396 414.658 213.58C414.658 212.764 414.498 212.056 414.178 211.456C413.866 210.856 413.438 210.392 412.894 210.064C412.35 209.728 411.73 209.56 411.034 209.56C410.402 209.56 409.798 209.724 409.222 210.052C408.654 210.372 408.19 210.832 407.83 211.432C407.47 212.032 407.29 212.748 407.29 213.58ZM423.024 208.36C423.648 208.36 424.256 208.496 424.848 208.768C425.44 209.032 425.928 209.456 426.312 210.04C426.696 210.616 426.888 211.364 426.888 212.284V218.5H425.496V212.608C425.496 211.512 425.24 210.724 424.728 210.244C424.216 209.756 423.56 209.512 422.76 209.512C422.232 209.512 421.72 209.664 421.224 209.968C420.736 210.272 420.332 210.688 420.012 211.216C419.7 211.744 419.544 212.336 419.544 212.992V218.5H418.176V208.648H419.544V210.544C419.6 210.264 419.788 209.956 420.108 209.62C420.436 209.276 420.852 208.98 421.356 208.732C421.868 208.484 422.424 208.36 423.024 208.36ZM433.277 217.588C433.981 217.588 434.545 217.48 434.969 217.264C435.393 217.04 435.653 216.884 435.749 216.796L436.469 217.852C436.405 217.9 436.225 218.004 435.929 218.164C435.633 218.316 435.249 218.456 434.777 218.584C434.313 218.72 433.785 218.788 433.193 218.788C432.401 218.788 431.637 218.592 430.901 218.2C430.165 217.808 429.557 217.224 429.077 216.448C428.605 215.672 428.369 214.712 428.369 213.568C428.369 212.416 428.605 211.456 429.077 210.688C429.557 209.912 430.165 209.332 430.901 208.948C431.637 208.556 432.401 208.36 433.193 208.36C433.785 208.36 434.305 208.432 434.753 208.576C435.201 208.72 435.569 208.88 435.857 209.056C436.145 209.232 436.325 209.36 436.397 209.44L435.689 210.484C435.617 210.42 435.481 210.316 435.281 210.172C435.089 210.02 434.825 209.88 434.489 209.752C434.153 209.624 433.749 209.56 433.277 209.56C432.709 209.56 432.149 209.716 431.597 210.028C431.045 210.34 430.589 210.796 430.229 211.396C429.877 211.988 429.701 212.712 429.701 213.568C429.701 214.424 429.877 215.152 430.229 215.752C430.589 216.352 431.045 216.808 431.597 217.12C432.149 217.432 432.709 217.588 433.277 217.588ZM438.429 213.736C438.437 214.424 438.573 215.068 438.837 215.668C439.109 216.268 439.517 216.752 440.061 217.12C440.605 217.488 441.289 217.672 442.113 217.672C442.785 217.672 443.345 217.564 443.793 217.348C444.249 217.124 444.609 216.868 444.873 216.58C445.145 216.284 445.337 216.02 445.449 215.788L446.301 216.628C446.005 217.084 445.661 217.476 445.269 217.804C444.885 218.124 444.429 218.368 443.901 218.536C443.381 218.704 442.761 218.788 442.041 218.788C440.993 218.788 440.097 218.556 439.353 218.092C438.617 217.62 438.053 216.98 437.661 216.172C437.277 215.364 437.085 214.456 437.085 213.448C437.085 212.488 437.277 211.624 437.661 210.856C438.045 210.088 438.597 209.48 439.317 209.032C440.045 208.584 440.921 208.36 441.945 208.36C442.873 208.36 443.677 208.564 444.357 208.972C445.045 209.38 445.577 209.948 445.953 210.676C446.337 211.396 446.529 212.236 446.529 213.196C446.529 213.268 446.525 213.36 446.517 213.472C446.517 213.584 446.513 213.672 446.505 213.736H438.429ZM445.161 212.596C445.153 212.164 445.045 211.708 444.837 211.228C444.637 210.74 444.305 210.328 443.841 209.992C443.385 209.648 442.757 209.476 441.957 209.476C441.125 209.476 440.461 209.644 439.965 209.98C439.477 210.308 439.121 210.712 438.897 211.192C438.673 211.672 438.537 212.14 438.489 212.596H445.161ZM449.512 218.5H448.168V208.648H449.512V210.424H449.452C449.484 210.216 449.628 209.952 449.884 209.632C450.148 209.304 450.504 209.012 450.952 208.756C451.4 208.492 451.928 208.36 452.536 208.36C453 208.36 453.396 208.42 453.724 208.54C454.06 208.652 454.292 208.768 454.42 208.888L453.82 210.052C453.716 209.948 453.52 209.844 453.232 209.74C452.952 209.636 452.612 209.584 452.212 209.584C451.66 209.584 451.18 209.768 450.772 210.136C450.372 210.504 450.06 210.944 449.836 211.456C449.62 211.96 449.512 212.424 449.512 212.848V218.5ZM461.256 223.492H459.888V208.648H461.292V210.688C461.34 210.424 461.532 210.112 461.868 209.752C462.212 209.384 462.672 209.06 463.248 208.78C463.832 208.5 464.504 208.36 465.264 208.36C466.16 208.36 466.964 208.568 467.676 208.984C468.396 209.4 468.968 210 469.392 210.784C469.816 211.56 470.028 212.492 470.028 213.58C470.028 214.668 469.812 215.604 469.38 216.388C468.956 217.164 468.384 217.76 467.664 218.176C466.944 218.584 466.136 218.788 465.24 218.788C464.464 218.788 463.78 218.64 463.188 218.344C462.604 218.048 462.144 217.712 461.808 217.336C461.48 216.96 461.296 216.66 461.256 216.436V223.492ZM468.66 213.58C468.66 212.748 468.492 212.032 468.156 211.432C467.82 210.832 467.38 210.372 466.836 210.052C466.3 209.724 465.716 209.56 465.084 209.56C464.388 209.56 463.752 209.728 463.176 210.064C462.6 210.392 462.14 210.856 461.796 211.456C461.46 212.056 461.292 212.764 461.292 213.58C461.292 214.396 461.46 215.104 461.796 215.704C462.14 216.304 462.6 216.768 463.176 217.096C463.752 217.424 464.388 217.588 465.084 217.588C465.716 217.588 466.3 217.428 466.836 217.108C467.38 216.788 467.82 216.328 468.156 215.728C468.492 215.128 468.66 214.412 468.66 213.58ZM472.859 218.5H471.515V208.648H472.859V210.424H472.799C472.831 210.216 472.975 209.952 473.231 209.632C473.495 209.304 473.851 209.012 474.299 208.756C474.747 208.492 475.275 208.36 475.883 208.36C476.347 208.36 476.743 208.42 477.071 208.54C477.407 208.652 477.639 208.768 477.767 208.888L477.167 210.052C477.063 209.948 476.867 209.844 476.579 209.74C476.299 209.636 475.959 209.584 475.559 209.584C475.007 209.584 474.527 209.768 474.119 210.136C473.719 210.504 473.407 210.944 473.183 211.456C472.967 211.96 472.859 212.424 472.859 212.848V218.5ZM482.455 218.788C481.471 218.788 480.595 218.56 479.827 218.104C479.067 217.64 478.467 217.016 478.027 216.232C477.595 215.448 477.379 214.572 477.379 213.604C477.379 212.636 477.595 211.756 478.027 210.964C478.467 210.164 479.067 209.532 479.827 209.068C480.595 208.596 481.471 208.36 482.455 208.36C483.439 208.36 484.307 208.596 485.059 209.068C485.819 209.532 486.415 210.164 486.847 210.964C487.279 211.756 487.495 212.636 487.495 213.604C487.495 214.572 487.279 215.448 486.847 216.232C486.415 217.016 485.819 217.64 485.059 218.104C484.307 218.56 483.439 218.788 482.455 218.788ZM482.455 217.552C483.199 217.552 483.847 217.38 484.399 217.036C484.959 216.692 485.391 216.22 485.695 215.62C486.007 215.02 486.163 214.348 486.163 213.604C486.163 212.852 486.007 212.176 485.695 211.576C485.391 210.968 484.959 210.488 484.399 210.136C483.847 209.776 483.199 209.596 482.455 209.596C481.703 209.596 481.047 209.776 480.487 210.136C479.927 210.488 479.491 210.968 479.179 211.576C478.867 212.176 478.711 212.852 478.711 213.604C478.711 214.348 478.867 215.02 479.179 215.62C479.491 216.22 479.927 216.692 480.487 217.036C481.047 217.38 481.703 217.552 482.455 217.552ZM493.414 218.788C492.526 218.788 491.722 218.584 491.002 218.176C490.282 217.76 489.71 217.164 489.286 216.388C488.862 215.604 488.65 214.668 488.65 213.58C488.65 212.492 488.862 211.56 489.286 210.784C489.71 210 490.282 209.4 491.002 208.984C491.722 208.568 492.526 208.36 493.414 208.36C494.174 208.36 494.846 208.5 495.43 208.78C496.014 209.06 496.478 209.384 496.822 209.752C497.166 210.112 497.354 210.424 497.386 210.688V201.988H498.778V218.5H497.422V216.436C497.366 216.692 497.162 217.004 496.81 217.372C496.466 217.74 496.002 218.068 495.418 218.356C494.834 218.644 494.166 218.788 493.414 218.788ZM493.582 217.588C494.278 217.588 494.914 217.424 495.49 217.096C496.066 216.768 496.526 216.304 496.87 215.704C497.214 215.104 497.386 214.396 497.386 213.58C497.386 212.764 497.214 212.056 496.87 211.456C496.526 210.856 496.066 210.392 495.49 210.064C494.914 209.728 494.278 209.56 493.582 209.56C492.958 209.56 492.374 209.724 491.83 210.052C491.294 210.372 490.858 210.832 490.522 211.432C490.186 212.032 490.018 212.748 490.018 213.58C490.018 214.412 490.186 215.128 490.522 215.728C490.858 216.328 491.294 216.788 491.83 217.108C492.374 217.428 492.958 217.588 493.582 217.588ZM501.51 213.796C501.51 214.948 501.762 215.864 502.266 216.544C502.778 217.216 503.546 217.552 504.57 217.552C505.602 217.552 506.37 217.216 506.874 216.544C507.378 215.864 507.63 214.948 507.63 213.796V208.648H508.998V214.036C508.998 214.956 508.826 215.776 508.482 216.496C508.138 217.208 507.638 217.768 506.982 218.176C506.326 218.584 505.522 218.788 504.57 218.788C503.626 218.788 502.826 218.584 502.17 218.176C501.514 217.768 501.014 217.208 500.67 216.496C500.326 215.776 500.154 214.956 500.154 214.036V208.648H501.51V213.796ZM515.48 217.588C516.184 217.588 516.748 217.48 517.172 217.264C517.596 217.04 517.856 216.884 517.952 216.796L518.672 217.852C518.608 217.9 518.428 218.004 518.132 218.164C517.836 218.316 517.452 218.456 516.98 218.584C516.516 218.72 515.988 218.788 515.396 218.788C514.604 218.788 513.84 218.592 513.104 218.2C512.368 217.808 511.76 217.224 511.28 216.448C510.808 215.672 510.572 214.712 510.572 213.568C510.572 212.416 510.808 211.456 511.28 210.688C511.76 209.912 512.368 209.332 513.104 208.948C513.84 208.556 514.604 208.36 515.396 208.36C515.988 208.36 516.508 208.432 516.956 208.576C517.404 208.72 517.772 208.88 518.06 209.056C518.348 209.232 518.528 209.36 518.6 209.44L517.892 210.484C517.82 210.42 517.684 210.316 517.484 210.172C517.292 210.02 517.028 209.88 516.692 209.752C516.356 209.624 515.952 209.56 515.48 209.56C514.912 209.56 514.352 209.716 513.8 210.028C513.248 210.34 512.792 210.796 512.432 211.396C512.08 211.988 511.904 212.712 511.904 213.568C511.904 214.424 512.08 215.152 512.432 215.752C512.792 216.352 513.248 216.808 513.8 217.12C514.352 217.432 514.912 217.588 515.48 217.588ZM519.087 208.648H521.139V204.604H522.495V208.648H525.183V209.884H522.495V215.728C522.495 216.384 522.615 216.852 522.855 217.132C523.095 217.412 523.395 217.552 523.755 217.552C524.099 217.552 524.359 217.492 524.535 217.372C524.711 217.252 524.815 217.172 524.847 217.132L525.483 218.176C525.435 218.216 525.327 218.288 525.159 218.392C524.991 218.488 524.771 218.576 524.499 218.656C524.227 218.744 523.899 218.788 523.515 218.788C522.851 218.788 522.287 218.576 521.823 218.152C521.367 217.72 521.139 217.032 521.139 216.088V209.884H519.087V208.648Z" fill="white"/>
<path d="M341.815 202.5H322.551V138.456H342.007V146.136C342.604 144.941 343.735 143.64 345.399 142.232C347.105 140.781 349.26 139.544 351.863 138.52C354.508 137.453 357.495 136.92 360.823 136.92C365.943 136.92 370.316 138.179 373.943 140.696C377.612 143.213 380.428 146.584 382.391 150.808C384.353 154.989 385.335 159.64 385.335 164.76C385.335 169.88 384.289 174.552 382.199 178.776C380.108 182.957 377.164 186.307 373.367 188.824C369.612 191.299 365.175 192.536 360.055 192.536C356.385 192.536 353.249 191.896 350.647 190.616C348.087 189.293 346.06 187.843 344.567 186.264C343.116 184.643 342.199 183.384 341.815 182.488V202.5ZM366.327 164.76C366.327 162.371 365.793 160.237 364.727 158.36C363.66 156.44 362.209 154.947 360.375 153.88C358.583 152.771 356.556 152.216 354.295 152.216C351.948 152.216 349.836 152.771 347.959 153.88C346.124 154.947 344.673 156.44 343.607 158.36C342.54 160.237 342.007 162.371 342.007 164.76C342.007 167.149 342.54 169.304 343.607 171.224C344.673 173.101 346.124 174.573 347.959 175.64C349.836 176.707 351.948 177.24 354.295 177.24C356.556 177.24 358.583 176.707 360.375 175.64C362.209 174.573 363.66 173.101 364.727 171.224C365.793 169.304 366.327 167.149 366.327 164.76Z" fill="#25D366"/>
<path d="M385.579 191V138.456H405.035V191H385.579ZM395.563 127.64C392.491 127.64 389.888 126.573 387.755 124.44C385.621 122.264 384.555 119.683 384.555 116.696C384.555 113.709 385.621 111.128 387.755 108.952C389.931 106.733 392.533 105.624 395.563 105.624C397.568 105.624 399.403 106.136 401.067 107.16C402.731 108.141 404.075 109.464 405.099 111.128C406.123 112.792 406.635 114.648 406.635 116.696C406.635 119.683 405.547 122.264 403.371 124.44C401.195 126.573 398.592 127.64 395.563 127.64Z" fill="#25D366"/>
<path d="M444.039 138.456H464.225H466.055L441.287 163.544L468.615 191H446.087L425.799 169.88V191H406.343V102.936H425.799V156.76L444.039 138.456Z" fill="#25D366"/>
<path d="M464.225 138.454H444.04L425.8 156.758V102.934H406.344V190.998H425.8V169.878L446.088 190.998H464.225V186.586L441.288 163.542L464.225 140.308V138.456V138.454Z" fill="white"/>
<path fill-rule="evenodd" clip-rule="evenodd" d="M483.68 191V190.998H483.681V154.454H491.325V174.358C491.325 180.544 493.032 185.131 496.445 188.118C499.858 191.062 504.189 192.534 509.437 192.534C512.381 192.534 515.047 192.256 517.437 191.702C519.826 191.147 521.789 190.528 523.325 189.846C524.904 189.163 525.842 188.694 526.141 188.438L519.485 174.614C519.314 174.784 518.824 175.126 518.013 175.638C517.202 176.15 516.221 176.406 515.069 176.406C513.362 176.406 512.189 175.744 511.549 174.422C510.909 173.056 510.589 171.286 510.589 169.11V154.454H522.365V138.454H510.589V116.886H491.325V138.454H483.681H464.225V138.456H464.224V191H483.68ZM482.016 124.44C482.832 123.623 483.496 122.749 484.006 121.819C484.217 121.434 484.402 121.039 484.561 120.634C485.041 119.41 485.281 118.097 485.281 116.694C485.281 114.646 484.769 112.79 483.745 111.126C482.721 109.462 481.377 108.139 479.713 107.158C478.049 106.134 476.214 105.622 474.209 105.622C471.18 105.622 468.577 106.731 466.401 108.95C465.601 109.766 464.951 110.639 464.451 111.569C464.253 111.937 464.078 112.314 463.927 112.7C463.442 113.94 463.2 115.272 463.2 116.696C463.2 119.683 464.266 122.264 466.4 124.44C468.533 126.573 471.136 127.64 474.208 127.64C477.237 127.64 479.84 126.573 482.016 124.44Z" fill="white"/>
<path fill-rule="evenodd" clip-rule="evenodd" d="M301.437 182.488V191H320.573V138.456H301.245V146.136C300.647 144.941 299.581 143.64 298.045 142.232C296.509 140.781 294.503 139.544 292.029 138.52C289.554 137.453 286.674 136.92 283.389 136.92C278.269 136.92 273.789 138.179 269.949 140.696C266.523 142.942 263.776 145.867 261.709 149.471L265.345 138.456H244.673L236.225 170.2L224.321 139.48H211.521L199.425 170.2L191.041 138.456H170.369L187.777 191H205.633L217.857 160.536L230.209 191H248.001L258.036 160.597C257.871 161.949 257.789 163.336 257.789 164.76C257.789 169.88 258.855 174.552 260.989 178.776C263.122 182.957 266.109 186.307 269.949 188.824C273.789 191.299 278.269 192.536 283.389 192.536C286.802 192.536 289.789 191.896 292.349 190.616C294.909 189.293 296.957 187.821 298.493 186.2C300.071 184.579 301.053 183.341 301.437 182.488ZM258.036 160.597C258.464 157.09 259.449 153.827 260.989 150.808C261.219 150.352 261.459 149.907 261.709 149.471L258.036 160.597ZM278.525 171.224C277.415 169.304 276.861 167.149 276.861 164.76C276.861 162.371 277.415 160.237 278.525 158.36C279.634 156.44 281.106 154.947 282.941 153.88C284.818 152.771 286.887 152.216 289.149 152.216C291.495 152.216 293.565 152.771 295.357 153.88C297.149 154.947 298.557 156.44 299.581 158.36C300.647 160.237 301.181 162.371 301.181 164.76C301.181 167.149 300.647 169.304 299.581 171.224C298.557 173.101 297.149 174.573 295.357 175.64C293.565 176.707 291.495 177.24 289.149 177.24C286.887 177.24 284.818 176.707 282.941 175.64C281.106 174.573 279.634 173.101 278.525 171.224Z" fill="#25D366"/>
<path d="M260.989 150.808C259.449 153.827 258.464 157.09 258.036 160.597L261.709 149.471C261.459 149.907 261.219 150.352 260.989 150.808Z" fill="#25D366"/>
<defs>
<linearGradient id="paint0_linear_254_65" x1="678.5" y1="2.42094e-05" x2="11" y2="296" gradientUnits="userSpaceOnUse">
<stop stop-color="#25D366" stop-opacity="0.06"/>
<stop offset="0.514174"/>
<stop offset="1" stop-color="#1C4448"/>
</linearGradient>
</defs>
</svg>
