<svg width="712" height="242" viewBox="0 0 712 242" fill="none" xmlns="http://www.w3.org/2000/svg">
<path d="M383.329 231.85V227.722C383.217 228.154 382.841 228.746 382.201 229.498C381.577 230.25 380.705 230.93 379.585 231.538C378.481 232.13 377.169 232.426 375.649 232.426C373.873 232.426 372.233 232.018 370.729 231.202C369.241 230.37 368.041 229.178 367.129 227.626C366.233 226.058 365.785 224.186 365.785 222.01C365.785 219.834 366.233 217.97 367.129 216.418C368.041 214.85 369.241 213.65 370.729 212.818C372.233 211.986 373.873 211.57 375.649 211.57C377.169 211.57 378.481 211.858 379.585 212.434C380.689 212.994 381.561 213.642 382.201 214.378C382.857 215.114 383.225 215.73 383.305 216.226V212.146H385.993V231.85H383.329ZM368.497 222.01C368.497 223.674 368.857 225.106 369.577 226.306C370.297 227.506 371.225 228.426 372.361 229.066C373.513 229.706 374.721 230.026 375.985 230.026C377.377 230.026 378.617 229.698 379.705 229.042C380.793 228.386 381.649 227.458 382.273 226.258C382.913 225.058 383.233 223.642 383.233 222.01C383.233 220.378 382.913 218.962 382.273 217.762C381.649 216.562 380.793 215.634 379.705 214.978C378.617 214.306 377.377 213.97 375.985 213.97C374.721 213.97 373.513 214.298 372.361 214.954C371.225 215.594 370.297 216.514 369.577 217.714C368.857 218.914 368.497 220.346 368.497 222.01ZM406.527 211.57C407.439 211.57 408.295 211.674 409.095 211.882C409.911 212.074 410.623 212.322 411.231 212.626C411.839 212.914 412.295 213.178 412.599 213.418L411.279 215.314C410.943 214.994 410.359 214.658 409.527 214.306C408.695 213.938 407.759 213.754 406.719 213.754C405.439 213.754 404.343 214.018 403.431 214.546C402.535 215.074 402.087 215.842 402.087 216.85C402.087 217.826 402.543 218.602 403.455 219.178C404.367 219.754 405.567 220.226 407.055 220.594C408.191 220.882 409.223 221.242 410.151 221.674C411.095 222.106 411.847 222.698 412.407 223.45C412.967 224.186 413.247 225.17 413.247 226.402C413.247 227.458 413.031 228.37 412.599 229.138C412.167 229.89 411.575 230.506 410.823 230.986C410.087 231.466 409.247 231.826 408.303 232.066C407.359 232.306 406.367 232.426 405.327 232.426C404.255 232.426 403.263 232.306 402.351 232.066C401.439 231.826 400.655 231.538 399.999 231.202C399.359 230.866 398.871 230.554 398.535 230.266L399.903 228.13C400.319 228.562 400.999 229.01 401.943 229.474C402.903 229.922 404.023 230.146 405.303 230.146C406.791 230.146 408.015 229.802 408.975 229.114C409.951 228.426 410.439 227.522 410.439 226.402C410.439 225.586 410.207 224.93 409.743 224.434C409.279 223.938 408.671 223.546 407.919 223.258C407.167 222.954 406.367 222.698 405.519 222.49C404.703 222.282 403.919 222.034 403.167 221.746C402.431 221.442 401.775 221.066 401.199 220.618C400.623 220.17 400.167 219.634 399.831 219.01C399.511 218.37 399.351 217.626 399.351 216.778C399.351 215.722 399.679 214.81 400.335 214.042C400.991 213.258 401.863 212.65 402.951 212.218C404.055 211.786 405.247 211.57 406.527 211.57ZM425.302 232.426C423.334 232.426 421.582 231.97 420.046 231.058C418.526 230.13 417.326 228.882 416.446 227.314C415.582 225.746 415.15 223.994 415.15 222.058C415.15 220.122 415.582 218.362 416.446 216.778C417.326 215.178 418.526 213.914 420.046 212.986C421.582 212.042 423.334 211.57 425.302 211.57C427.27 211.57 429.006 212.042 430.51 212.986C432.03 213.914 433.222 215.178 434.086 216.778C434.95 218.362 435.382 220.122 435.382 222.058C435.382 223.994 434.95 225.746 434.086 227.314C433.222 228.882 432.03 230.13 430.51 231.058C429.006 231.97 427.27 232.426 425.302 232.426ZM425.302 229.954C426.79 229.954 428.086 229.61 429.19 228.922C430.31 228.234 431.174 227.29 431.782 226.09C432.406 224.89 432.718 223.546 432.718 222.058C432.718 220.554 432.406 219.202 431.782 218.002C431.174 216.786 430.31 215.826 429.19 215.122C428.086 214.402 426.79 214.042 425.302 214.042C423.798 214.042 422.486 214.402 421.366 215.122C420.246 215.826 419.374 216.786 418.75 218.002C418.126 219.202 417.814 220.554 417.814 222.058C417.814 223.546 418.126 224.89 418.75 226.09C419.374 227.29 420.246 228.234 421.366 228.922C422.486 229.61 423.798 229.954 425.302 229.954ZM436.209 212.146H440.601V206.386C440.601 204.338 440.921 202.73 441.561 201.562C442.201 200.378 443.009 199.53 443.985 199.018C444.961 198.506 445.961 198.25 446.985 198.25C448.201 198.25 449.145 198.426 449.817 198.778C450.489 199.114 450.881 199.33 450.993 199.426L449.817 201.61C449.721 201.514 449.441 201.338 448.977 201.082C448.529 200.826 447.897 200.698 447.081 200.698C446.473 200.698 445.881 200.85 445.305 201.154C444.729 201.442 444.249 202.018 443.865 202.882C443.481 203.746 443.289 205.042 443.289 206.77V212.146H449.241V214.594H443.289V231.85H440.601V214.594H436.209V212.146ZM449.766 212.146H453.87V204.058H456.582V212.146H461.958V214.618H456.582V226.306C456.582 227.618 456.822 228.554 457.302 229.114C457.782 229.674 458.382 229.954 459.102 229.954C459.79 229.954 460.31 229.834 460.662 229.594C461.014 229.354 461.222 229.194 461.286 229.114L462.558 231.202C462.462 231.282 462.246 231.426 461.91 231.634C461.574 231.826 461.134 232.002 460.59 232.162C460.046 232.338 459.39 232.426 458.622 232.426C457.294 232.426 456.166 232.002 455.238 231.154C454.326 230.29 453.87 228.914 453.87 227.026V214.618H449.766V212.146ZM467.689 231.85H464.905V198.826H467.689V231.85ZM488.436 231.85V227.722C488.324 228.154 487.948 228.746 487.308 229.498C486.684 230.25 485.812 230.93 484.692 231.538C483.588 232.13 482.276 232.426 480.756 232.426C478.98 232.426 477.34 232.018 475.836 231.202C474.348 230.37 473.148 229.178 472.236 227.626C471.34 226.058 470.892 224.186 470.892 222.01C470.892 219.834 471.34 217.97 472.236 216.418C473.148 214.85 474.348 213.65 475.836 212.818C477.34 211.986 478.98 211.57 480.756 211.57C482.276 211.57 483.588 211.858 484.692 212.434C485.796 212.994 486.668 213.642 487.308 214.378C487.964 215.114 488.332 215.73 488.412 216.226V212.146H491.1V231.85H488.436ZM473.604 222.01C473.604 223.674 473.964 225.106 474.684 226.306C475.404 227.506 476.332 228.426 477.468 229.066C478.62 229.706 479.828 230.026 481.092 230.026C482.484 230.026 483.724 229.698 484.812 229.042C485.9 228.386 486.756 227.458 487.38 226.258C488.02 225.058 488.34 223.642 488.34 222.01C488.34 220.378 488.02 218.962 487.38 217.762C486.756 216.562 485.9 215.634 484.812 214.978C483.724 214.306 482.484 213.97 481.092 213.97C479.828 213.97 478.62 214.298 477.468 214.954C476.332 215.594 475.404 216.514 474.684 217.714C473.964 218.914 473.604 220.346 473.604 222.01ZM505.073 211.57C506.321 211.57 507.537 211.842 508.721 212.386C509.905 212.914 510.881 213.762 511.649 214.93C512.417 216.082 512.801 217.578 512.801 219.418V231.85H510.017V220.066C510.017 217.874 509.505 216.298 508.481 215.338C507.457 214.362 506.145 213.874 504.545 213.874C503.489 213.874 502.465 214.178 501.473 214.786C500.497 215.394 499.689 216.226 499.049 217.282C498.425 218.338 498.113 219.522 498.113 220.834V231.85H495.377V212.146H498.113V215.938C498.225 215.378 498.601 214.762 499.241 214.09C499.897 213.402 500.729 212.81 501.737 212.314C502.761 211.818 503.873 211.57 505.073 211.57ZM525.578 230.026C526.986 230.026 528.114 229.81 528.962 229.378C529.81 228.93 530.33 228.618 530.522 228.442L531.962 230.554C531.834 230.65 531.474 230.858 530.882 231.178C530.29 231.482 529.522 231.762 528.578 232.018C527.65 232.29 526.594 232.426 525.41 232.426C523.826 232.426 522.298 232.034 520.826 231.25C519.354 230.466 518.138 229.298 517.178 227.746C516.234 226.194 515.762 224.274 515.762 221.986C515.762 219.682 516.234 217.762 517.178 216.226C518.138 214.674 519.354 213.514 520.826 212.746C522.298 211.962 523.826 211.57 525.41 211.57C526.594 211.57 527.634 211.714 528.53 212.002C529.426 212.29 530.162 212.61 530.738 212.962C531.314 213.314 531.674 213.57 531.818 213.73L530.402 215.818C530.258 215.69 529.986 215.482 529.586 215.194C529.202 214.89 528.674 214.61 528.002 214.354C527.33 214.098 526.522 213.97 525.578 213.97C524.442 213.97 523.322 214.282 522.218 214.906C521.114 215.53 520.202 216.442 519.482 217.642C518.778 218.826 518.426 220.274 518.426 221.986C518.426 223.698 518.778 225.154 519.482 226.354C520.202 227.554 521.114 228.466 522.218 229.09C523.322 229.714 524.442 230.026 525.578 230.026ZM535.882 222.322C535.898 223.698 536.17 224.986 536.698 226.186C537.242 227.386 538.058 228.354 539.146 229.09C540.234 229.826 541.602 230.194 543.25 230.194C544.594 230.194 545.714 229.978 546.61 229.546C547.522 229.098 548.242 228.586 548.77 228.01C549.314 227.418 549.698 226.89 549.922 226.426L551.626 228.106C551.034 229.018 550.346 229.802 549.562 230.458C548.794 231.098 547.882 231.586 546.826 231.922C545.786 232.258 544.546 232.426 543.106 232.426C541.01 232.426 539.218 231.962 537.73 231.034C536.258 230.09 535.13 228.81 534.346 227.194C533.578 225.578 533.194 223.762 533.194 221.746C533.194 219.826 533.578 218.098 534.346 216.562C535.114 215.026 536.218 213.81 537.658 212.914C539.114 212.018 540.866 211.57 542.914 211.57C544.77 211.57 546.378 211.978 547.738 212.794C549.114 213.61 550.178 214.746 550.93 216.202C551.698 217.642 552.082 219.322 552.082 221.242C552.082 221.386 552.074 221.57 552.058 221.794C552.058 222.018 552.05 222.194 552.034 222.322H535.882ZM549.346 220.042C549.33 219.178 549.114 218.266 548.698 217.306C548.298 216.33 547.634 215.506 546.706 214.834C545.794 214.146 544.538 213.802 542.938 213.802C541.274 213.802 539.946 214.138 538.954 214.81C537.978 215.466 537.266 216.274 536.818 217.234C536.37 218.194 536.098 219.13 536.002 220.042H549.346ZM558.049 231.85H555.361V212.146H558.049V215.698H557.929C557.993 215.282 558.281 214.754 558.793 214.114C559.321 213.458 560.033 212.874 560.929 212.362C561.825 211.834 562.881 211.57 564.097 211.57C565.025 211.57 565.817 211.69 566.473 211.93C567.145 212.154 567.609 212.386 567.865 212.626L566.665 214.954C566.457 214.746 566.065 214.538 565.489 214.33C564.929 214.122 564.249 214.018 563.449 214.018C562.345 214.018 561.385 214.386 560.569 215.122C559.769 215.858 559.145 216.738 558.697 217.762C558.265 218.77 558.049 219.698 558.049 220.546V231.85ZM581.536 241.834H578.8V212.146H581.608V216.226C581.704 215.698 582.088 215.074 582.76 214.354C583.448 213.618 584.368 212.97 585.52 212.41C586.688 211.85 588.032 211.57 589.552 211.57C591.344 211.57 592.952 211.986 594.376 212.818C595.816 213.65 596.96 214.85 597.808 216.418C598.656 217.97 599.08 219.834 599.08 222.01C599.08 224.186 598.648 226.058 597.784 227.626C596.936 229.178 595.792 230.37 594.352 231.202C592.912 232.018 591.296 232.426 589.504 232.426C587.952 232.426 586.584 232.13 585.4 231.538C584.232 230.946 583.312 230.274 582.64 229.522C581.984 228.77 581.616 228.17 581.536 227.722V241.834ZM596.344 222.01C596.344 220.346 596.008 218.914 595.336 217.714C594.664 216.514 593.784 215.594 592.696 214.954C591.624 214.298 590.456 213.97 589.192 213.97C587.8 213.97 586.528 214.306 585.376 214.978C584.224 215.634 583.304 216.562 582.616 217.762C581.944 218.962 581.608 220.378 581.608 222.01C581.608 223.642 581.944 225.058 582.616 226.258C583.304 227.458 584.224 228.386 585.376 229.042C586.528 229.698 587.8 230.026 589.192 230.026C590.456 230.026 591.624 229.706 592.696 229.066C593.784 228.426 594.664 227.506 595.336 226.306C596.008 225.106 596.344 223.674 596.344 222.01ZM604.742 231.85H602.054V212.146H604.742V215.698H604.622C604.686 215.282 604.974 214.754 605.486 214.114C606.014 213.458 606.726 212.874 607.622 212.362C608.518 211.834 609.574 211.57 610.79 211.57C611.718 211.57 612.51 211.69 613.166 211.93C613.838 212.154 614.302 212.386 614.558 212.626L613.358 214.954C613.15 214.746 612.758 214.538 612.182 214.33C611.622 214.122 610.942 214.018 610.142 214.018C609.038 214.018 608.078 214.386 607.262 215.122C606.462 215.858 605.838 216.738 605.39 217.762C604.958 218.77 604.742 219.698 604.742 220.546V231.85ZM623.934 232.426C621.966 232.426 620.214 231.97 618.678 231.058C617.158 230.13 615.958 228.882 615.078 227.314C614.214 225.746 613.782 223.994 613.782 222.058C613.782 220.122 614.214 218.362 615.078 216.778C615.958 215.178 617.158 213.914 618.678 212.986C620.214 212.042 621.966 211.57 623.934 211.57C625.902 211.57 627.638 212.042 629.142 212.986C630.662 213.914 631.854 215.178 632.718 216.778C633.582 218.362 634.014 220.122 634.014 222.058C634.014 223.994 633.582 225.746 632.718 227.314C631.854 228.882 630.662 230.13 629.142 231.058C627.638 231.97 625.902 232.426 623.934 232.426ZM623.934 229.954C625.422 229.954 626.718 229.61 627.822 228.922C628.942 228.234 629.806 227.29 630.414 226.09C631.038 224.89 631.35 223.546 631.35 222.058C631.35 220.554 631.038 219.202 630.414 218.002C629.806 216.786 628.942 215.826 627.822 215.122C626.718 214.402 625.422 214.042 623.934 214.042C622.43 214.042 621.118 214.402 619.998 215.122C618.878 215.826 618.006 216.786 617.382 218.002C616.758 219.202 616.446 220.554 616.446 222.058C616.446 223.546 616.758 224.89 617.382 226.09C618.006 227.29 618.878 228.234 619.998 228.922C621.118 229.61 622.43 229.954 623.934 229.954ZM645.853 232.426C644.077 232.426 642.469 232.018 641.029 231.202C639.589 230.37 638.445 229.178 637.597 227.626C636.749 226.058 636.325 224.186 636.325 222.01C636.325 219.834 636.749 217.97 637.597 216.418C638.445 214.85 639.589 213.65 641.029 212.818C642.469 211.986 644.077 211.57 645.853 211.57C647.373 211.57 648.717 211.85 649.885 212.41C651.053 212.97 651.981 213.618 652.669 214.354C653.357 215.074 653.733 215.698 653.797 216.226V198.826H656.581V231.85H653.869V227.722C653.757 228.234 653.349 228.858 652.645 229.594C651.957 230.33 651.029 230.986 649.861 231.562C648.693 232.138 647.357 232.426 645.853 232.426ZM646.189 230.026C647.581 230.026 648.853 229.698 650.005 229.042C651.157 228.386 652.077 227.458 652.765 226.258C653.453 225.058 653.797 223.642 653.797 222.01C653.797 220.378 653.453 218.962 652.765 217.762C652.077 216.562 651.157 215.634 650.005 214.978C648.853 214.306 647.581 213.97 646.189 213.97C644.941 213.97 643.773 214.298 642.685 214.954C641.613 215.594 640.741 216.514 640.069 217.714C639.397 218.914 639.061 220.346 639.061 222.01C639.061 223.674 639.397 225.106 640.069 226.306C640.741 227.506 641.613 228.426 642.685 229.066C643.773 229.706 644.941 230.026 646.189 230.026ZM662.044 222.442C662.044 224.746 662.548 226.578 663.556 227.938C664.58 229.282 666.116 229.954 668.164 229.954C670.228 229.954 671.764 229.282 672.772 227.938C673.78 226.578 674.284 224.746 674.284 222.442V212.146H677.02V222.922C677.02 224.762 676.676 226.402 675.988 227.842C675.3 229.266 674.3 230.386 672.988 231.202C671.676 232.018 670.068 232.426 668.164 232.426C666.276 232.426 664.676 232.018 663.364 231.202C662.052 230.386 661.052 229.266 660.364 227.842C659.676 226.402 659.332 224.762 659.332 222.922V212.146H662.044V222.442ZM689.985 230.026C691.393 230.026 692.521 229.81 693.369 229.378C694.217 228.93 694.737 228.618 694.929 228.442L696.369 230.554C696.241 230.65 695.881 230.858 695.289 231.178C694.697 231.482 693.929 231.762 692.985 232.018C692.057 232.29 691.001 232.426 689.817 232.426C688.233 232.426 686.705 232.034 685.233 231.25C683.761 230.466 682.545 229.298 681.585 227.746C680.641 226.194 680.169 224.274 680.169 221.986C680.169 219.682 680.641 217.762 681.585 216.226C682.545 214.674 683.761 213.514 685.233 212.746C686.705 211.962 688.233 211.57 689.817 211.57C691.001 211.57 692.041 211.714 692.937 212.002C693.833 212.29 694.569 212.61 695.145 212.962C695.721 213.314 696.081 213.57 696.225 213.73L694.809 215.818C694.665 215.69 694.393 215.482 693.993 215.194C693.609 214.89 693.081 214.61 692.409 214.354C691.737 214.098 690.929 213.97 689.985 213.97C688.849 213.97 687.729 214.282 686.625 214.906C685.521 215.53 684.609 216.442 683.889 217.642C683.185 218.826 682.833 220.274 682.833 221.986C682.833 223.698 683.185 225.154 683.889 226.354C684.609 227.554 685.521 228.466 686.625 229.09C687.729 229.714 688.849 230.026 689.985 230.026ZM697.198 212.146H701.302V204.058H704.014V212.146H709.39V214.618H704.014V226.306C704.014 227.618 704.254 228.554 704.734 229.114C705.214 229.674 705.814 229.954 706.534 229.954C707.222 229.954 707.742 229.834 708.094 229.594C708.446 229.354 708.654 229.194 708.718 229.114L709.99 231.202C709.894 231.282 709.678 231.426 709.342 231.634C709.006 231.826 708.566 232.002 708.022 232.162C707.478 232.338 706.822 232.426 706.054 232.426C704.726 232.426 703.598 232.002 702.67 231.154C701.758 230.29 701.302 228.914 701.302 227.026V214.618H697.198V212.146Z" fill="white"/>
<path d="M343.154 199.85H304.626V71.7617H343.538V87.1217C344.732 84.7323 346.994 82.1297 350.322 79.3137C353.735 76.4123 358.044 73.9377 363.25 71.8897C368.54 69.7563 374.514 68.6897 381.17 68.6897C391.41 68.6897 400.156 71.207 407.41 76.2417C414.748 81.2763 420.38 88.0177 424.306 96.4657C428.231 104.828 430.194 114.13 430.194 124.37C430.194 134.61 428.103 143.954 423.922 152.402C419.74 160.764 413.852 167.463 406.258 172.498C398.748 177.447 389.874 179.922 379.634 179.922C372.295 179.922 366.023 178.642 360.818 176.082C355.698 173.436 351.644 170.535 348.658 167.378C345.756 164.135 343.922 161.618 343.154 159.826V199.85ZM392.178 124.37C392.178 119.591 391.111 115.324 388.978 111.57C386.844 107.73 383.943 104.743 380.274 102.61C376.69 100.391 372.636 99.2817 368.114 99.2817C363.42 99.2817 359.196 100.391 355.442 102.61C351.772 104.743 348.871 107.73 346.738 111.57C344.604 115.324 343.538 119.591 343.538 124.37C343.538 129.148 344.604 133.458 346.738 137.298C348.871 141.052 351.772 143.996 355.442 146.13C359.196 148.263 363.42 149.33 368.114 149.33C372.636 149.33 376.69 148.263 380.274 146.13C383.943 143.996 386.844 141.052 388.978 137.298C391.111 133.458 392.178 129.148 392.178 124.37Z" fill="#25D366"/>
<path d="M430.682 176.85V71.7617H469.594V176.85H430.682ZM450.65 50.1297C444.506 50.1297 439.3 47.9963 435.034 43.7297C430.767 39.3777 428.634 34.215 428.634 28.2417C428.634 22.2683 430.767 17.1057 435.034 12.7537C439.386 8.31634 444.591 6.09767 450.65 6.09767C454.66 6.09767 458.33 7.12167 461.658 9.16968C464.986 11.1323 467.674 13.7777 469.722 17.1057C471.77 20.4337 472.794 24.1457 472.794 28.2417C472.794 34.215 470.618 39.3777 466.266 43.7297C461.914 47.9963 456.708 50.1297 450.65 50.1297Z" fill="#25D366"/>
<path d="M547.602 71.7617H587.974H591.634L542.098 121.938L596.754 176.85H551.698L511.122 134.61V176.85H472.21V0.72168H511.122V108.37L547.602 71.7617Z" fill="#25D366"/>
<path d="M587.974 71.7568H547.604L511.124 108.365V0.716797H472.212V176.845H511.124V134.605L551.7 176.845H587.974V168.022L542.1 121.933L587.974 75.4662V71.7617V71.7568Z" fill="white"/>
<path fill-rule="evenodd" clip-rule="evenodd" d="M626.884 176.85V176.845H626.886V103.757H642.174V143.565C642.174 155.938 645.588 165.111 652.414 171.085C659.241 176.973 667.902 179.917 678.398 179.917C684.286 179.917 689.619 179.362 694.398 178.253C699.177 177.143 703.102 175.906 706.174 174.541C709.331 173.175 711.209 172.237 711.806 171.725L698.494 144.077C698.153 144.418 697.172 145.101 695.55 146.125C693.929 147.149 691.966 147.661 689.662 147.661C686.249 147.661 683.902 146.338 682.622 143.693C681.342 140.962 680.702 137.421 680.702 133.069V103.757H704.254V71.7568H680.702V28.6208H642.174V71.7568H626.886H587.974V71.7617H587.972V176.85H626.884ZM623.556 43.7297C625.189 42.0963 626.516 40.3486 627.536 38.4868C627.958 37.7168 628.328 36.9272 628.646 36.1182C629.606 33.6699 630.086 31.0428 630.086 28.2368C630.086 24.1408 629.062 20.4288 627.014 17.1008C624.966 13.7728 622.278 11.1275 618.95 9.16479C615.622 7.11679 611.953 6.09279 607.942 6.09279C601.883 6.09279 596.678 8.31146 592.326 12.7488C590.726 14.3808 589.426 16.1268 588.426 17.9868C588.03 18.7235 587.681 19.4781 587.379 20.2506C586.409 22.73 585.924 25.3936 585.924 28.2417C585.924 34.215 588.057 39.3777 592.324 43.7297C596.59 47.9963 601.796 50.1297 607.94 50.1297C613.998 50.1297 619.204 47.9963 623.556 43.7297Z" fill="white"/>
<path fill-rule="evenodd" clip-rule="evenodd" d="M262.398 159.826V176.85H300.67V71.7617H262.014V87.1217C260.819 84.7323 258.686 82.1297 255.614 79.3137C252.542 76.4123 248.531 73.9377 243.582 71.8897C238.632 69.7563 232.872 68.6897 226.302 68.6897C216.062 68.6897 207.102 71.207 199.422 76.2417C192.57 80.7332 187.077 86.5831 182.942 93.7914L190.214 71.7617H148.87L131.974 135.25L108.166 73.8097H82.5657L58.3737 135.25L41.6057 71.7617H0.261719L35.0777 176.85H70.7897L95.2377 115.922L119.942 176.85H155.526L175.597 116.044C175.267 118.747 175.102 121.522 175.102 124.37C175.102 134.61 177.235 143.954 181.502 152.402C185.768 160.764 191.742 167.463 199.422 172.498C207.102 177.447 216.062 179.922 226.302 179.922C233.128 179.922 239.102 178.642 244.222 176.082C249.342 173.436 253.438 170.492 256.51 167.25C259.667 164.007 261.63 161.532 262.398 159.826ZM175.597 116.044C176.453 109.029 178.422 102.503 181.502 96.4657C181.962 95.5544 182.442 94.6629 182.942 93.7914L175.597 116.044ZM216.574 137.298C214.355 133.458 213.246 129.148 213.246 124.37C213.246 119.591 214.355 115.324 216.574 111.57C218.792 107.73 221.736 104.743 225.406 102.61C229.16 100.391 233.299 99.2817 237.822 99.2817C242.515 99.2817 246.654 100.391 250.238 102.61C253.822 104.743 256.638 107.73 258.686 111.57C260.819 115.324 261.886 119.591 261.886 124.37C261.886 129.148 260.819 133.458 258.686 137.298C256.638 141.052 253.822 143.996 250.238 146.13C246.654 148.263 242.515 149.33 237.822 149.33C233.299 149.33 229.16 148.263 225.406 146.13C221.736 143.996 218.792 141.052 216.574 137.298Z" fill="#25D366"/>
<path d="M181.502 96.4657C178.422 102.503 176.453 109.029 175.597 116.044L182.942 93.7914C182.442 94.6629 181.962 95.5544 181.502 96.4657Z" fill="#25D366"/>
</svg>
