<svg width="400" height="400" viewBox="0 0 400 400" fill="none" xmlns="http://www.w3.org/2000/svg">
<rect width="400" height="400" rx="200" fill="url(#paint0_linear_331_138)"/>
<path d="M211.245 245.754V244.042C211.199 244.221 211.043 244.467 210.778 244.779C210.519 245.09 210.157 245.372 209.693 245.625C209.235 245.87 208.691 245.993 208.061 245.993C207.324 245.993 206.644 245.824 206.02 245.485C205.403 245.14 204.905 244.646 204.527 244.002C204.156 243.352 203.97 242.576 203.97 241.673C203.97 240.771 204.156 239.998 204.527 239.354C204.905 238.704 205.403 238.206 206.02 237.861C206.644 237.516 207.324 237.344 208.061 237.344C208.691 237.344 209.235 237.463 209.693 237.702C210.151 237.934 210.512 238.203 210.778 238.508C211.05 238.813 211.202 239.069 211.236 239.274V237.582H212.35V245.754H211.245ZM205.095 241.673C205.095 242.363 205.244 242.957 205.542 243.455C205.841 243.952 206.226 244.334 206.697 244.599C207.175 244.865 207.676 244.997 208.2 244.997C208.777 244.997 209.291 244.861 209.743 244.589C210.194 244.317 210.549 243.933 210.808 243.435C211.073 242.937 211.206 242.35 211.206 241.673C211.206 240.996 211.073 240.409 210.808 239.911C210.549 239.414 210.194 239.029 209.743 238.757C209.291 238.478 208.777 238.339 208.2 238.339C207.676 238.339 207.175 238.475 206.697 238.747C206.226 239.012 205.841 239.394 205.542 239.892C205.244 240.389 205.095 240.983 205.095 241.673ZM220.866 237.344C221.244 237.344 221.599 237.387 221.931 237.473C222.269 237.553 222.565 237.655 222.817 237.782C223.069 237.901 223.258 238.01 223.384 238.11L222.837 238.896C222.697 238.764 222.455 238.624 222.11 238.478C221.765 238.326 221.377 238.249 220.945 238.249C220.415 238.249 219.96 238.359 219.582 238.578C219.21 238.797 219.025 239.115 219.025 239.533C219.025 239.938 219.214 240.26 219.592 240.499C219.97 240.738 220.468 240.933 221.085 241.086C221.556 241.205 221.984 241.355 222.369 241.534C222.76 241.713 223.072 241.958 223.304 242.27C223.537 242.576 223.653 242.984 223.653 243.495C223.653 243.933 223.563 244.311 223.384 244.629C223.205 244.941 222.959 245.197 222.647 245.396C222.342 245.595 221.994 245.744 221.602 245.843C221.211 245.943 220.799 245.993 220.368 245.993C219.924 245.993 219.512 245.943 219.134 245.843C218.756 245.744 218.431 245.625 218.159 245.485C217.893 245.346 217.691 245.216 217.551 245.097L218.119 244.211C218.291 244.39 218.573 244.576 218.965 244.769C219.363 244.954 219.827 245.047 220.358 245.047C220.975 245.047 221.483 244.905 221.881 244.619C222.286 244.334 222.488 243.959 222.488 243.495C222.488 243.156 222.392 242.884 222.2 242.678C222.007 242.473 221.755 242.31 221.443 242.191C221.131 242.065 220.799 241.958 220.448 241.872C220.109 241.786 219.784 241.683 219.472 241.564C219.167 241.438 218.895 241.282 218.656 241.096C218.417 240.91 218.228 240.688 218.089 240.429C217.956 240.164 217.89 239.855 217.89 239.503C217.89 239.065 218.026 238.687 218.298 238.369C218.57 238.044 218.932 237.791 219.383 237.612C219.841 237.433 220.335 237.344 220.866 237.344ZM228.652 245.993C227.836 245.993 227.109 245.804 226.472 245.425C225.842 245.041 225.344 244.523 224.979 243.873C224.621 243.223 224.442 242.496 224.442 241.693C224.442 240.89 224.621 240.16 224.979 239.503C225.344 238.84 225.842 238.316 226.472 237.931C227.109 237.539 227.836 237.344 228.652 237.344C229.468 237.344 230.188 237.539 230.812 237.931C231.442 238.316 231.937 238.84 232.295 239.503C232.653 240.16 232.832 240.89 232.832 241.693C232.832 242.496 232.653 243.223 232.295 243.873C231.937 244.523 231.442 245.041 230.812 245.425C230.188 245.804 229.468 245.993 228.652 245.993ZM228.652 244.968C229.269 244.968 229.807 244.825 230.264 244.54C230.729 244.254 231.087 243.863 231.339 243.365C231.598 242.868 231.728 242.31 231.728 241.693C231.728 241.069 231.598 240.509 231.339 240.011C231.087 239.507 230.729 239.109 230.264 238.817C229.807 238.518 229.269 238.369 228.652 238.369C228.028 238.369 227.484 238.518 227.02 238.817C226.555 239.109 226.194 239.507 225.935 240.011C225.676 240.509 225.547 241.069 225.547 241.693C225.547 242.31 225.676 242.868 225.935 243.365C226.194 243.863 226.555 244.254 227.02 244.54C227.484 244.825 228.028 244.968 228.652 244.968ZM233.175 237.582H234.997V235.194C234.997 234.344 235.13 233.678 235.395 233.193C235.66 232.702 235.995 232.351 236.4 232.138C236.805 231.926 237.22 231.82 237.644 231.82C238.149 231.82 238.54 231.893 238.819 232.039C239.097 232.178 239.26 232.268 239.306 232.307L238.819 233.213C238.779 233.173 238.663 233.1 238.47 232.994C238.285 232.888 238.023 232.835 237.684 232.835C237.432 232.835 237.186 232.898 236.948 233.024C236.709 233.143 236.51 233.382 236.35 233.741C236.191 234.099 236.112 234.636 236.112 235.353V237.582H238.58V238.598H236.112V245.754H234.997V238.598H233.175V237.582ZM238.797 237.582H240.499V234.228H241.624V237.582H243.854V238.608H241.624V243.455C241.624 243.999 241.724 244.387 241.923 244.619C242.122 244.851 242.371 244.968 242.669 244.968C242.955 244.968 243.17 244.918 243.316 244.818C243.462 244.719 243.548 244.652 243.575 244.619L244.102 245.485C244.063 245.518 243.973 245.578 243.834 245.664C243.694 245.744 243.512 245.817 243.286 245.883C243.061 245.956 242.789 245.993 242.47 245.993C241.919 245.993 241.452 245.817 241.067 245.465C240.689 245.107 240.499 244.536 240.499 243.753V238.608H238.797V237.582ZM246.231 245.754H245.076V232.059H246.231V245.754ZM254.834 245.754V244.042C254.788 244.221 254.632 244.467 254.366 244.779C254.108 245.09 253.746 245.372 253.282 245.625C252.824 245.87 252.28 245.993 251.649 245.993C250.913 245.993 250.233 245.824 249.609 245.485C248.992 245.14 248.494 244.646 248.116 244.002C247.744 243.352 247.559 242.576 247.559 241.673C247.559 240.771 247.744 239.998 248.116 239.354C248.494 238.704 248.992 238.206 249.609 237.861C250.233 237.516 250.913 237.344 251.649 237.344C252.28 237.344 252.824 237.463 253.282 237.702C253.739 237.934 254.101 238.203 254.366 238.508C254.639 238.813 254.791 239.069 254.824 239.274V237.582H255.939V245.754H254.834ZM248.683 241.673C248.683 242.363 248.833 242.957 249.131 243.455C249.43 243.952 249.815 244.334 250.286 244.599C250.763 244.865 251.264 244.997 251.789 244.997C252.366 244.997 252.88 244.861 253.331 244.589C253.783 244.317 254.138 243.933 254.396 243.435C254.662 242.937 254.794 242.35 254.794 241.673C254.794 240.996 254.662 240.409 254.396 239.911C254.138 239.414 253.783 239.029 253.331 238.757C252.88 238.478 252.366 238.339 251.789 238.339C251.264 238.339 250.763 238.475 250.286 238.747C249.815 239.012 249.43 239.394 249.131 239.892C248.833 240.389 248.683 240.983 248.683 241.673ZM261.734 237.344C262.251 237.344 262.756 237.456 263.247 237.682C263.738 237.901 264.142 238.253 264.461 238.737C264.779 239.215 264.939 239.835 264.939 240.598V245.754H263.784V240.867C263.784 239.958 263.572 239.304 263.147 238.906C262.722 238.501 262.178 238.299 261.515 238.299C261.077 238.299 260.652 238.425 260.241 238.677C259.836 238.929 259.501 239.274 259.236 239.712C258.977 240.15 258.847 240.641 258.847 241.185V245.754H257.713V237.582H258.847V239.155C258.894 238.923 259.05 238.667 259.315 238.389C259.587 238.103 259.932 237.858 260.35 237.652C260.775 237.446 261.236 237.344 261.734 237.344ZM270.237 244.997C270.821 244.997 271.289 244.908 271.641 244.729C271.992 244.543 272.208 244.414 272.288 244.341L272.885 245.216C272.832 245.256 272.682 245.343 272.437 245.475C272.191 245.601 271.873 245.717 271.481 245.824C271.097 245.936 270.659 245.993 270.168 245.993C269.511 245.993 268.877 245.83 268.267 245.505C267.656 245.18 267.152 244.696 266.754 244.052C266.362 243.408 266.167 242.612 266.167 241.663C266.167 240.708 266.362 239.911 266.754 239.274C267.152 238.631 267.656 238.15 268.267 237.831C268.877 237.506 269.511 237.344 270.168 237.344C270.659 237.344 271.09 237.403 271.462 237.523C271.833 237.642 272.138 237.775 272.377 237.921C272.616 238.067 272.765 238.173 272.825 238.239L272.238 239.105C272.178 239.052 272.065 238.966 271.899 238.847C271.74 238.72 271.521 238.604 271.243 238.498C270.964 238.392 270.629 238.339 270.237 238.339C269.766 238.339 269.302 238.468 268.844 238.727C268.386 238.986 268.008 239.364 267.709 239.862C267.417 240.353 267.271 240.953 267.271 241.663C267.271 242.373 267.417 242.977 267.709 243.475C268.008 243.972 268.386 244.351 268.844 244.609C269.302 244.868 269.766 244.997 270.237 244.997ZM274.511 241.803C274.517 242.373 274.63 242.907 274.849 243.405C275.075 243.903 275.413 244.304 275.864 244.609C276.316 244.915 276.883 245.067 277.566 245.067C278.124 245.067 278.588 244.978 278.96 244.798C279.338 244.613 279.637 244.4 279.856 244.161C280.081 243.916 280.24 243.697 280.333 243.505L281.04 244.201C280.794 244.579 280.509 244.905 280.184 245.177C279.865 245.442 279.487 245.644 279.049 245.784C278.618 245.923 278.104 245.993 277.507 245.993C276.637 245.993 275.894 245.8 275.277 245.416C274.667 245.024 274.199 244.493 273.874 243.823C273.555 243.153 273.396 242.4 273.396 241.564C273.396 240.767 273.555 240.051 273.874 239.414C274.192 238.777 274.65 238.273 275.247 237.901C275.851 237.529 276.578 237.344 277.427 237.344C278.197 237.344 278.864 237.513 279.428 237.851C279.998 238.19 280.439 238.661 280.751 239.265C281.07 239.862 281.229 240.558 281.229 241.355C281.229 241.414 281.226 241.491 281.219 241.584C281.219 241.676 281.216 241.749 281.209 241.803H274.511ZM280.094 240.857C280.088 240.499 279.998 240.12 279.826 239.722C279.66 239.318 279.384 238.976 279 238.697C278.621 238.412 278.1 238.269 277.437 238.269C276.747 238.269 276.196 238.409 275.785 238.687C275.38 238.959 275.085 239.294 274.899 239.693C274.713 240.091 274.6 240.479 274.561 240.857H280.094ZM283.703 245.754H282.589V237.582H283.703V239.056H283.654C283.68 238.883 283.8 238.664 284.012 238.399C284.231 238.127 284.526 237.884 284.898 237.672C285.269 237.453 285.707 237.344 286.211 237.344C286.596 237.344 286.925 237.393 287.197 237.493C287.476 237.586 287.668 237.682 287.774 237.782L287.276 238.747C287.19 238.661 287.028 238.574 286.789 238.488C286.557 238.402 286.275 238.359 285.943 238.359C285.485 238.359 285.087 238.511 284.748 238.817C284.417 239.122 284.158 239.487 283.972 239.911C283.793 240.33 283.703 240.714 283.703 241.066V245.754ZM293.444 249.894H292.309V237.582H293.473V239.274C293.513 239.056 293.673 238.797 293.951 238.498C294.237 238.193 294.618 237.924 295.096 237.692C295.58 237.46 296.138 237.344 296.768 237.344C297.511 237.344 298.178 237.516 298.768 237.861C299.366 238.206 299.84 238.704 300.192 239.354C300.543 239.998 300.719 240.771 300.719 241.673C300.719 242.576 300.54 243.352 300.182 244.002C299.83 244.646 299.356 245.14 298.759 245.485C298.161 245.824 297.491 245.993 296.748 245.993C296.104 245.993 295.537 245.87 295.046 245.625C294.562 245.379 294.18 245.1 293.901 244.788C293.629 244.477 293.477 244.228 293.444 244.042V249.894ZM299.585 241.673C299.585 240.983 299.445 240.389 299.167 239.892C298.888 239.394 298.523 239.012 298.072 238.747C297.627 238.475 297.143 238.339 296.619 238.339C296.041 238.339 295.514 238.478 295.036 238.757C294.558 239.029 294.177 239.414 293.891 239.911C293.613 240.409 293.473 240.996 293.473 241.673C293.473 242.35 293.613 242.937 293.891 243.435C294.177 243.933 294.558 244.317 295.036 244.589C295.514 244.861 296.041 244.997 296.619 244.997C297.143 244.997 297.627 244.865 298.072 244.599C298.523 244.334 298.888 243.952 299.167 243.455C299.445 242.957 299.585 242.363 299.585 241.673ZM303.067 245.754H301.953V237.582H303.067V239.056H303.018C303.044 238.883 303.164 238.664 303.376 238.399C303.595 238.127 303.89 237.884 304.262 237.672C304.633 237.453 305.071 237.344 305.576 237.344C305.96 237.344 306.289 237.393 306.561 237.493C306.84 237.586 307.032 237.682 307.138 237.782L306.641 238.747C306.554 238.661 306.392 238.574 306.153 238.488C305.921 238.402 305.639 238.359 305.307 238.359C304.849 238.359 304.451 238.511 304.112 238.817C303.781 239.122 303.522 239.487 303.336 239.911C303.157 240.33 303.067 240.714 303.067 241.066V245.754ZM311.027 245.993C310.21 245.993 309.484 245.804 308.847 245.425C308.216 245.041 307.719 244.523 307.354 243.873C306.996 243.223 306.816 242.496 306.816 241.693C306.816 240.89 306.996 240.16 307.354 239.503C307.719 238.84 308.216 238.316 308.847 237.931C309.484 237.539 310.21 237.344 311.027 237.344C311.843 237.344 312.563 237.539 313.186 237.931C313.817 238.316 314.311 238.84 314.669 239.503C315.028 240.16 315.207 240.89 315.207 241.693C315.207 242.496 315.028 243.223 314.669 243.873C314.311 244.523 313.817 245.041 313.186 245.425C312.563 245.804 311.843 245.993 311.027 245.993ZM311.027 244.968C311.644 244.968 312.181 244.825 312.639 244.54C313.103 244.254 313.462 243.863 313.714 243.365C313.973 242.868 314.102 242.31 314.102 241.693C314.102 241.069 313.973 240.509 313.714 240.011C313.462 239.507 313.103 239.109 312.639 238.817C312.181 238.518 311.644 238.369 311.027 238.369C310.403 238.369 309.859 238.518 309.394 238.817C308.93 239.109 308.568 239.507 308.309 240.011C308.051 240.509 307.921 241.069 307.921 241.693C307.921 242.31 308.051 242.868 308.309 243.365C308.568 243.863 308.93 244.254 309.394 244.54C309.859 244.825 310.403 244.968 311.027 244.968ZM320.116 245.993C319.38 245.993 318.713 245.824 318.116 245.485C317.519 245.14 317.044 244.646 316.693 244.002C316.341 243.352 316.165 242.576 316.165 241.673C316.165 240.771 316.341 239.998 316.693 239.354C317.044 238.704 317.519 238.206 318.116 237.861C318.713 237.516 319.38 237.344 320.116 237.344C320.747 237.344 321.304 237.46 321.789 237.692C322.273 237.924 322.658 238.193 322.943 238.498C323.228 238.797 323.384 239.056 323.411 239.274V232.059H324.565V245.754H323.441V244.042C323.394 244.254 323.225 244.513 322.933 244.818C322.648 245.124 322.263 245.396 321.779 245.634C321.294 245.873 320.74 245.993 320.116 245.993ZM320.256 244.997C320.833 244.997 321.361 244.861 321.838 244.589C322.316 244.317 322.698 243.933 322.983 243.435C323.268 242.937 323.411 242.35 323.411 241.673C323.411 240.996 323.268 240.409 322.983 239.911C322.698 239.414 322.316 239.029 321.838 238.757C321.361 238.478 320.833 238.339 320.256 238.339C319.738 238.339 319.254 238.475 318.803 238.747C318.358 239.012 317.996 239.394 317.718 239.892C317.439 240.389 317.3 240.983 317.3 241.673C317.3 242.363 317.439 242.957 317.718 243.455C317.996 243.952 318.358 244.334 318.803 244.599C319.254 244.865 319.738 244.997 320.256 244.997ZM326.831 241.852C326.831 242.808 327.04 243.568 327.458 244.132C327.883 244.689 328.52 244.968 329.369 244.968C330.225 244.968 330.862 244.689 331.28 244.132C331.698 243.568 331.907 242.808 331.907 241.852V237.582H333.042V242.051C333.042 242.814 332.899 243.495 332.614 244.092C332.328 244.682 331.914 245.147 331.37 245.485C330.825 245.824 330.159 245.993 329.369 245.993C328.586 245.993 327.923 245.824 327.378 245.485C326.834 245.147 326.42 244.682 326.134 244.092C325.849 243.495 325.706 242.814 325.706 242.051V237.582H326.831V241.852ZM338.419 244.997C339.003 244.997 339.47 244.908 339.822 244.729C340.174 244.543 340.389 244.414 340.469 244.341L341.066 245.216C341.013 245.256 340.864 245.343 340.618 245.475C340.373 245.601 340.054 245.717 339.663 245.824C339.278 245.936 338.84 245.993 338.349 245.993C337.692 245.993 337.058 245.83 336.448 245.505C335.837 245.18 335.333 244.696 334.935 244.052C334.544 243.408 334.348 242.612 334.348 241.663C334.348 240.708 334.544 239.911 334.935 239.274C335.333 238.631 335.837 238.15 336.448 237.831C337.058 237.506 337.692 237.344 338.349 237.344C338.84 237.344 339.271 237.403 339.643 237.523C340.014 237.642 340.32 237.775 340.559 237.921C340.797 238.067 340.947 238.173 341.006 238.239L340.419 239.105C340.359 239.052 340.247 238.966 340.081 238.847C339.922 238.72 339.703 238.604 339.424 238.498C339.145 238.392 338.81 238.339 338.419 238.339C337.948 238.339 337.483 238.468 337.025 238.727C336.567 238.986 336.189 239.364 335.891 239.862C335.599 240.353 335.453 240.953 335.453 241.663C335.453 242.373 335.599 242.977 335.891 243.475C336.189 243.972 336.567 244.351 337.025 244.609C337.483 244.868 337.948 244.997 338.419 244.997ZM341.41 237.582H343.112V234.228H344.237V237.582H346.466V238.608H344.237V243.455C344.237 243.999 344.336 244.387 344.535 244.619C344.734 244.851 344.983 244.968 345.282 244.968C345.567 244.968 345.783 244.918 345.929 244.818C346.075 244.719 346.161 244.652 346.187 244.619L346.715 245.485C346.675 245.518 346.586 245.578 346.446 245.664C346.307 245.744 346.124 245.817 345.899 245.883C345.673 245.956 345.401 245.993 345.083 245.993C344.532 245.993 344.064 245.817 343.679 245.465C343.301 245.107 343.112 244.536 343.112 243.753V238.608H341.41V237.582Z" fill="white"/>
<path d="M194.536 232.582H178.558V179.463H194.695V185.833C195.191 184.842 196.128 183.763 197.509 182.595C198.924 181.392 200.711 180.365 202.87 179.516C205.064 178.631 207.541 178.189 210.302 178.189C214.548 178.189 218.175 179.233 221.183 181.321C224.227 183.409 226.563 186.204 228.19 189.708C229.818 193.176 230.632 197.033 230.632 201.28C230.632 205.527 229.765 209.402 228.031 212.905C226.297 216.373 223.855 219.151 220.706 221.239C217.592 223.292 213.911 224.318 209.665 224.318C206.621 224.318 204.02 223.787 201.861 222.725C199.738 221.628 198.057 220.425 196.819 219.116C195.615 217.771 194.854 216.727 194.536 215.984V232.582ZM214.867 201.28C214.867 199.298 214.424 197.529 213.54 195.972C212.655 194.379 211.452 193.141 209.93 192.256C208.444 191.336 206.763 190.876 204.887 190.876C202.941 190.876 201.189 191.336 199.632 192.256C198.11 193.141 196.907 194.379 196.022 195.972C195.138 197.529 194.695 199.298 194.695 201.28C194.695 203.262 195.138 205.049 196.022 206.641C196.907 208.198 198.11 209.419 199.632 210.304C201.189 211.189 202.941 211.631 204.887 211.631C206.763 211.631 208.444 211.189 209.93 210.304C211.452 209.419 212.655 208.198 213.54 206.641C214.424 205.049 214.867 203.262 214.867 201.28Z" fill="#25D366"/>
<path d="M230.835 223.044V179.463H246.972V223.044H230.835ZM239.116 170.492C236.568 170.492 234.409 169.607 232.639 167.838C230.87 166.033 229.985 163.892 229.985 161.415C229.985 158.938 230.87 156.797 232.639 154.992C234.444 153.152 236.603 152.231 239.116 152.231C240.779 152.231 242.3 152.656 243.681 153.505C245.061 154.319 246.176 155.416 247.025 156.797C247.874 158.177 248.299 159.716 248.299 161.415C248.299 163.892 247.396 166.033 245.592 167.838C243.787 169.607 241.628 170.492 239.116 170.492Z" fill="#25D366"/>
<path d="M279.322 179.463H296.065H297.583L277.04 200.271L299.706 223.044H281.021L264.194 205.527V223.044H248.057V150.002H264.194V194.645L279.322 179.463Z" fill="#25D366"/>
<path d="M296.065 179.461H279.323L264.195 194.643V150H248.058V223.042H264.195V205.525L281.022 223.042H296.065V219.383L277.041 200.269L296.065 180.999V179.463V179.461Z" fill="white"/>
<path fill-rule="evenodd" clip-rule="evenodd" d="M312.201 223.044V223.042H312.202V192.732H318.542V209.24C318.542 214.372 319.958 218.176 322.789 220.653C325.62 223.095 329.212 224.316 333.565 224.316C336.007 224.316 338.218 224.086 340.2 223.626C342.182 223.166 343.81 222.653 345.084 222.086C346.393 221.52 347.172 221.131 347.42 220.919L341.899 209.453C341.757 209.594 341.35 209.877 340.678 210.302C340.006 210.727 339.192 210.939 338.236 210.939C336.821 210.939 335.847 210.391 335.317 209.293C334.786 208.161 334.52 206.692 334.52 204.888V192.732H344.288V179.461H334.52V161.572H318.542V179.461H312.202H296.065V179.463H296.064V223.044H312.201ZM310.821 167.838C311.499 167.16 312.049 166.436 312.472 165.664C312.647 165.344 312.8 165.017 312.932 164.681C313.33 163.666 313.529 162.576 313.529 161.413C313.529 159.714 313.105 158.175 312.255 156.795C311.406 155.414 310.291 154.317 308.911 153.503C307.531 152.654 306.009 152.229 304.346 152.229C301.834 152.229 299.675 153.15 297.87 154.99C297.206 155.667 296.667 156.391 296.253 157.162C296.088 157.468 295.944 157.78 295.818 158.101C295.416 159.129 295.215 160.234 295.215 161.415C295.215 163.892 296.1 166.033 297.869 167.838C299.638 169.607 301.797 170.492 304.345 170.492C306.858 170.492 309.016 169.607 310.821 167.838Z" fill="white"/>
<path fill-rule="evenodd" clip-rule="evenodd" d="M161.046 215.984V223.044H176.917V179.463H160.886V185.833C160.391 184.842 159.506 183.763 158.232 182.595C156.958 181.392 155.295 180.365 153.243 179.516C151.19 178.631 148.801 178.189 146.076 178.189C141.83 178.189 138.114 179.233 134.929 181.321C132.088 183.184 129.809 185.61 128.095 188.599L131.11 179.463H113.965L106.958 205.792L97.0842 180.312H86.4677L76.435 205.792L69.4812 179.463H52.3354L66.774 223.044H81.5841L91.7229 197.777L101.968 223.044H116.725L125.048 197.827C124.912 198.948 124.843 200.099 124.843 201.28C124.843 205.527 125.728 209.402 127.497 212.905C129.267 216.373 131.744 219.151 134.929 221.239C138.114 223.292 141.83 224.318 146.076 224.318C148.907 224.318 151.385 223.787 153.508 222.725C155.631 221.628 157.33 220.407 158.604 219.063C159.913 217.718 160.727 216.692 161.046 215.984ZM125.048 197.827C125.404 194.918 126.22 192.212 127.497 189.708C127.688 189.33 127.887 188.96 128.095 188.599L125.048 197.827ZM142.042 206.641C141.122 205.049 140.662 203.262 140.662 201.28C140.662 199.298 141.122 197.529 142.042 195.972C142.962 194.379 144.183 193.141 145.705 192.256C147.262 191.336 148.978 190.876 150.854 190.876C152.8 190.876 154.516 191.336 156.003 192.256C157.489 193.141 158.657 194.379 159.506 195.972C160.391 197.529 160.833 199.298 160.833 201.28C160.833 203.262 160.391 205.049 159.506 206.641C158.657 208.198 157.489 209.419 156.003 210.304C154.516 211.189 152.8 211.631 150.854 211.631C148.978 211.631 147.262 211.189 145.705 210.304C144.183 209.419 142.962 208.198 142.042 206.641Z" fill="#25D366"/>
<path d="M127.497 189.708C126.22 192.212 125.404 194.918 125.048 197.827L128.095 188.599C127.887 188.96 127.688 189.33 127.497 189.708Z" fill="#25D366"/>
<defs>
<linearGradient id="paint0_linear_331_138" x1="387.714" y1="3.02617e-05" x2="-50.7034" y2="88.8752" gradientUnits="userSpaceOnUse">
<stop stop-color="#0E7032"/>
<stop offset="0.514174"/>
<stop offset="1" stop-color="#1C4448"/>
</linearGradient>
</defs>
</svg>
