<svg width="797" height="223" viewBox="0 0 797 223" fill="none" xmlns="http://www.w3.org/2000/svg">
<path d="M383.925 222.963H340.787V79.5467H384.355V96.7448C385.693 94.0695 388.225 91.1554 391.951 88.0024C395.773 84.7539 400.598 81.9831 406.426 79.69C412.35 77.3014 419.038 76.107 426.49 76.107C437.956 76.107 447.749 78.9256 455.87 84.5628C464.087 90.1999 470.393 97.748 474.788 107.207C479.183 116.57 481.381 126.985 481.381 138.45C481.381 149.916 479.04 160.378 474.358 169.837C469.677 179.2 463.084 186.7 454.581 192.337C446.173 197.879 436.236 200.65 424.771 200.65C416.554 200.65 409.531 199.217 403.703 196.35C397.97 193.388 393.432 190.14 390.088 186.605C386.839 182.974 384.785 180.156 383.925 178.149V222.963ZM438.816 138.45C438.816 133.1 437.621 128.322 435.233 124.118C432.844 119.819 429.596 116.475 425.487 114.086C421.474 111.602 416.936 110.36 411.872 110.36C406.617 110.36 401.888 111.602 397.684 114.086C393.575 116.475 390.327 119.819 387.938 124.118C385.549 128.322 384.355 133.1 384.355 138.45C384.355 143.801 385.549 148.626 387.938 152.925C390.327 157.129 393.575 160.425 397.684 162.814C401.888 165.203 406.617 166.397 411.872 166.397C416.936 166.397 421.474 165.203 425.487 162.814C429.596 160.425 432.844 157.129 435.233 152.925C437.621 148.626 438.816 143.801 438.816 138.45Z" fill="#25D366"/>
<path d="M481.927 197.21V79.5467H525.496V197.21H481.927ZM504.285 55.326C497.406 55.326 491.577 52.9374 486.8 48.1601C482.023 43.2873 479.634 37.5069 479.634 30.8187C479.634 24.1306 482.023 18.3501 486.8 13.4773C491.673 8.50896 497.501 6.02479 504.285 6.02479C508.775 6.02479 512.884 7.17133 516.61 9.46442C520.336 11.662 523.346 14.6238 525.639 18.3501C527.932 22.0764 529.079 26.2326 529.079 30.8187C529.079 37.5069 526.642 43.2873 521.77 48.1601C516.897 52.9374 511.069 55.326 504.285 55.326Z" fill="#25D366"/>
<path d="M612.839 79.5467H658.043H662.14L606.676 135.727L667.873 197.21H617.425L571.993 149.916V197.21H528.425V0.00546713H571.993V120.535L612.839 79.5467Z" fill="#25D366"/>
<path d="M658.043 79.5412H612.842L571.996 120.53V0H528.428V197.205H571.996V149.91L617.428 197.205H658.043V187.326L606.679 135.722L658.043 83.6944V79.5467V79.5412Z" fill="white"/>
<path fill-rule="evenodd" clip-rule="evenodd" d="M701.608 197.21V197.205H701.611V115.371H718.729V159.942C718.729 173.796 722.55 184.067 730.194 190.756C737.838 197.348 747.535 200.644 759.287 200.644C765.88 200.644 771.852 200.023 777.202 198.781C782.553 197.539 786.948 196.154 790.387 194.625C793.922 193.096 796.024 192.045 796.693 191.472L781.788 160.516C781.406 160.898 780.307 161.662 778.492 162.809C776.677 163.955 774.479 164.528 771.899 164.528C768.078 164.528 765.45 163.048 764.017 160.086C762.584 157.028 761.867 153.063 761.867 148.19V115.371H788.238V79.5412H761.867V31.2432H718.729V79.5412H701.611H658.043V79.5467H658.04V197.21H701.608ZM697.882 48.1601C699.711 46.3313 701.196 44.3744 702.339 42.2898C702.812 41.4277 703.226 40.5437 703.581 39.6378C704.656 36.8966 705.194 33.9551 705.194 30.8133C705.194 26.2271 704.047 22.0709 701.754 18.3446C699.461 14.6184 696.452 11.6565 692.725 9.45895C688.999 7.16587 684.891 6.01932 680.4 6.01932C673.616 6.01932 667.788 8.5035 662.915 13.4718C661.124 15.2991 659.668 17.2541 658.549 19.3367C658.105 20.1615 657.714 21.0064 657.376 21.8713C656.29 24.6475 655.747 27.6298 655.747 30.8187C655.747 37.5069 658.135 43.2873 662.913 48.1601C667.69 52.9374 673.518 55.326 680.397 55.326C687.181 55.326 693.009 52.9374 697.882 48.1601Z" fill="white"/>
<path fill-rule="evenodd" clip-rule="evenodd" d="M293.505 178.149V197.21H336.357V79.5467H293.075V96.7448C291.738 94.0695 289.349 91.1554 285.909 88.0024C282.47 84.7539 277.979 81.9831 272.438 79.69C266.896 77.3014 260.447 76.107 253.09 76.107C241.624 76.107 231.592 78.9256 222.993 84.5628C215.322 89.5918 209.171 96.1418 204.541 104.213L212.683 79.5467H166.392L147.474 150.632L120.817 81.8397H92.1531L65.0661 150.632L46.2915 79.5467H0L38.9823 197.21H78.9679L106.342 128.991L134.002 197.21H173.844L196.317 129.128C195.947 132.154 195.763 135.262 195.763 138.45C195.763 149.916 198.151 160.378 202.929 169.837C207.706 179.2 214.394 186.7 222.993 192.337C231.592 197.879 241.624 200.65 253.09 200.65C260.733 200.65 267.421 199.217 273.154 196.35C278.887 193.388 283.473 190.092 286.913 186.461C290.448 182.831 292.645 180.06 293.505 178.149ZM196.317 129.128C197.276 121.274 199.48 113.966 202.929 107.207C203.444 106.187 203.981 105.188 204.541 104.213L196.317 129.128ZM242.198 152.925C239.713 148.626 238.471 143.801 238.471 138.45C238.471 133.1 239.713 128.322 242.198 124.118C244.682 119.819 247.978 116.475 252.086 114.086C256.29 111.602 260.924 110.36 265.988 110.36C271.243 110.36 275.877 111.602 279.89 114.086C283.903 116.475 287.056 119.819 289.349 124.118C291.738 128.322 292.932 133.1 292.932 138.45C292.932 143.801 291.738 148.626 289.349 152.925C287.056 157.129 283.903 160.425 279.89 162.814C275.877 165.203 271.243 166.397 265.988 166.397C260.924 166.397 256.29 165.203 252.086 162.814C247.978 160.425 244.682 157.129 242.198 152.925Z" fill="#25D366"/>
<path d="M202.929 107.207C199.48 113.966 197.276 121.274 196.317 129.128L204.541 104.213C203.981 105.188 203.444 106.187 202.929 107.207Z" fill="#25D366"/>
</svg>
