<svg width="1482" height="677" viewBox="0 0 1482 677" fill="none" xmlns="http://www.w3.org/2000/svg">
<rect width="1481.52" height="677" rx="58.2227" fill="url(#paint0_linear_331_75)"/>
<path d="M725.925 449.963H682.787V306.547H726.355V323.745C727.693 321.069 730.225 318.155 733.951 315.002C737.773 311.754 742.598 308.983 748.426 306.69C754.35 304.301 761.038 303.107 768.49 303.107C779.956 303.107 789.749 305.926 797.87 311.563C806.087 317.2 812.393 324.748 816.788 334.207C821.183 343.57 823.381 353.985 823.381 365.45C823.381 376.916 821.04 387.378 816.358 396.837C811.677 406.2 805.084 413.7 796.581 419.337C788.173 424.879 778.236 427.65 766.771 427.65C758.554 427.65 751.531 426.217 745.703 423.35C739.97 420.388 735.432 417.14 732.088 413.605C728.839 409.974 726.785 407.156 725.925 405.149V449.963ZM780.816 365.45C780.816 360.1 779.621 355.322 777.233 351.118C774.844 346.819 771.596 343.475 767.487 341.086C763.474 338.602 758.936 337.36 753.872 337.36C748.617 337.36 743.888 338.602 739.684 341.086C735.575 343.475 732.327 346.819 729.938 351.118C727.549 355.322 726.355 360.1 726.355 365.45C726.355 370.801 727.549 375.626 729.938 379.925C732.327 384.129 735.575 387.425 739.684 389.814C743.888 392.203 748.617 393.397 753.872 393.397C758.936 393.397 763.474 392.203 767.487 389.814C771.596 387.425 774.844 384.129 777.233 379.925C779.621 375.626 780.816 370.801 780.816 365.45Z" fill="#25D366"/>
<path d="M823.927 424.21V306.547H867.496V424.21H823.927ZM846.285 282.326C839.406 282.326 833.577 279.937 828.8 275.16C824.023 270.287 821.634 264.507 821.634 257.819C821.634 251.131 824.023 245.35 828.8 240.477C833.673 235.509 839.501 233.025 846.285 233.025C850.775 233.025 854.884 234.171 858.61 236.464C862.336 238.662 865.346 241.624 867.639 245.35C869.932 249.076 871.079 253.233 871.079 257.819C871.079 264.507 868.642 270.287 863.77 275.16C858.897 279.937 853.069 282.326 846.285 282.326Z" fill="#25D366"/>
<path d="M954.839 306.547H1000.04H1004.14L948.676 362.727L1009.87 424.21H959.425L913.993 376.916V424.21H870.425V227.005H913.993V347.535L954.839 306.547Z" fill="#25D366"/>
<path d="M1000.04 306.541H954.842L913.996 347.53V227H870.428V424.205H913.996V376.91L959.428 424.205H1000.04V414.326L948.679 362.722L1000.04 310.694V306.547V306.541Z" fill="white"/>
<path fill-rule="evenodd" clip-rule="evenodd" d="M1043.61 424.21V424.205H1043.61V342.371H1060.73V386.942C1060.73 400.796 1064.55 411.067 1072.19 417.756C1079.84 424.348 1089.54 427.644 1101.29 427.644C1107.88 427.644 1113.85 427.023 1119.2 425.781C1124.55 424.539 1128.95 423.154 1132.39 421.625C1135.92 420.096 1138.02 419.045 1138.69 418.472L1123.79 387.516C1123.41 387.898 1122.31 388.662 1120.49 389.809C1118.68 390.955 1116.48 391.528 1113.9 391.528C1110.08 391.528 1107.45 390.048 1106.02 387.086C1104.58 384.028 1103.87 380.063 1103.87 375.19V342.371H1130.24V306.541H1103.87V258.243H1060.73V306.541H1043.61H1000.04V306.547H1000.04V424.21H1043.61ZM1039.88 275.16C1041.71 273.331 1043.2 271.374 1044.34 269.29C1044.81 268.428 1045.23 267.544 1045.58 266.638C1046.66 263.897 1047.19 260.955 1047.19 257.813C1047.19 253.227 1046.05 249.071 1043.75 245.345C1041.46 241.618 1038.45 238.656 1034.73 236.459C1031 234.166 1026.89 233.019 1022.4 233.019C1015.62 233.019 1009.79 235.503 1004.92 240.472C1003.12 242.299 1001.67 244.254 1000.55 246.337C1000.11 247.162 999.714 248.006 999.376 248.871C998.29 251.648 997.747 254.63 997.747 257.819C997.747 264.507 1000.14 270.287 1004.91 275.16C1009.69 279.937 1015.52 282.326 1022.4 282.326C1029.18 282.326 1035.01 279.937 1039.88 275.16Z" fill="white"/>
<path fill-rule="evenodd" clip-rule="evenodd" d="M635.505 405.149V424.21H678.357V306.547H635.075V323.745C633.738 321.069 631.349 318.155 627.909 315.002C624.47 311.754 619.979 308.983 614.438 306.69C608.896 304.301 602.447 303.107 595.09 303.107C583.624 303.107 573.592 305.926 564.993 311.563C557.322 316.592 551.171 323.142 546.541 331.213L554.683 306.547H508.392L489.474 377.632L462.817 308.84H434.153L407.066 377.632L388.292 306.547H342L380.982 424.21H420.968L448.342 355.991L476.002 424.21H515.844L538.317 356.128C537.947 359.154 537.763 362.262 537.763 365.45C537.763 376.916 540.151 387.378 544.929 396.837C549.706 406.2 556.394 413.7 564.993 419.337C573.592 424.879 583.624 427.65 595.09 427.65C602.733 427.65 609.421 426.217 615.154 423.35C620.887 420.388 625.473 417.092 628.913 413.461C632.448 409.831 634.645 407.06 635.505 405.149ZM538.317 356.128C539.276 348.274 541.48 340.966 544.929 334.207C545.444 333.187 545.981 332.188 546.541 331.213L538.317 356.128ZM584.198 379.925C581.713 375.626 580.471 370.801 580.471 365.45C580.471 360.1 581.713 355.322 584.198 351.118C586.682 346.819 589.978 343.475 594.086 341.086C598.29 338.602 602.924 337.36 607.988 337.36C613.243 337.36 617.877 338.602 621.89 341.086C625.903 343.475 629.056 346.819 631.349 351.118C633.738 355.322 634.932 360.1 634.932 365.45C634.932 370.801 633.738 375.626 631.349 379.925C629.056 384.129 625.903 387.425 621.89 389.814C617.877 392.203 613.243 393.397 607.988 393.397C602.924 393.397 598.29 392.203 594.086 389.814C589.978 387.425 586.682 384.129 584.198 379.925Z" fill="#25D366"/>
<path d="M544.929 334.207C541.48 340.966 539.276 348.274 538.317 356.128L546.541 331.213C545.981 332.188 545.444 333.187 544.929 334.207Z" fill="#25D366"/>
<defs>
<linearGradient id="paint0_linear_331_75" x1="1436.02" y1="5.12179e-05" x2="23.4639" y2="626.637" gradientUnits="userSpaceOnUse">
<stop stop-color="#117D39"/>
<stop offset="0.432213"/>
<stop offset="1" stop-color="#1C4448"/>
</linearGradient>
</defs>
</svg>
